<svg width="718" height="188" viewBox="0 0 718 188" fill="none" xmlns="http://www.w3.org/2000/svg">
<path d="M317.232 13.3734L268.085 25.1864L291.365 114.229C291.365 114.229 339.162 91.4949 364.579 110.329C365.479 110.997 366.604 111.666 367.616 112.223L378.187 19.7257C358.619 11.1446 341.749 11.4789 317.232 13.3734Z" fill="#349974"/>
<path d="M436.444 25.632C410.239 29.8668 394.832 28.418 386.734 23.9603C383.81 22.2887 380.886 20.9514 378.075 19.7255L367.503 112.223C382.461 119.913 411.701 117.015 411.701 117.015C466.471 102.973 516.293 28.9753 516.293 28.9753L503.922 30.0897L527.539 3.34338C527.539 3.34338 491.551 16.7165 436.444 25.632Z" fill="#3DAE8A"/>
<path d="M718 184.892H0V187.327H718V184.892Z" fill="#3DAE8A"/>
<path d="M308.789 187.156C307.777 187.156 306.877 186.488 306.652 185.485L260.992 10.5193C260.654 9.29345 261.441 8.06758 262.566 7.84469C263.803 7.51036 265.04 8.29046 265.265 9.40489L310.926 184.37C311.263 185.596 310.476 186.822 309.351 187.045C309.239 187.156 309.014 187.156 308.789 187.156Z" fill="#3DAE8A"/>
<path d="M317.794 80.1277C317.119 79.9048 316.557 79.3476 315.995 78.4561C315.095 76.7844 314.308 75.3357 313.633 73.7755C312.958 72.3267 312.396 70.878 311.834 69.5406C311.271 68.2033 310.821 66.7546 310.371 65.4173C309.922 64.0799 309.584 62.7426 309.134 61.2939C308.685 59.8451 308.347 58.3964 307.897 56.8362C307.447 55.2759 307.11 53.6043 306.66 51.9327C306.435 51.0411 306.435 50.3725 306.773 49.7038C306.998 49.0351 307.56 48.7008 308.347 48.3665C309.922 47.8093 311.159 47.3635 312.396 46.9177C313.633 46.472 314.983 46.0262 316.782 45.3575C318.581 44.8003 320.268 44.3545 321.955 44.0202C323.642 43.7973 325.217 43.7973 326.566 43.9088C328.028 44.1317 329.378 44.466 330.503 45.1346C331.74 45.8033 332.752 46.6948 333.652 47.9207C334.551 49.1466 335.226 50.5953 335.901 52.267C336.576 53.9386 337.025 55.9446 337.363 58.062C337.7 60.1794 337.925 62.1854 337.925 63.9685C337.925 65.7516 337.813 67.3118 337.588 68.6491C337.363 69.9864 336.913 71.2123 336.351 72.2153C335.451 73.7755 334.326 74.8899 332.864 75.67C331.402 76.4501 329.603 77.2302 327.466 77.7874C326.004 78.1217 324.879 78.4561 323.755 78.7904C322.63 79.1247 321.505 79.4591 320.043 80.0163C319.256 80.3506 318.581 80.3506 317.794 80.1277ZM324.992 73.664C326.566 73.2183 327.916 72.7725 329.04 71.9924C330.053 71.3237 330.952 70.4322 331.402 69.2063C331.965 68.0919 332.189 66.6431 332.302 64.9715C332.302 63.2998 332.077 61.2939 331.627 59.065C331.177 56.8362 330.503 54.9416 329.715 53.3814C328.928 51.8212 327.916 50.7068 326.791 50.0381C325.667 49.3695 324.317 48.9237 322.743 48.9237C321.168 48.9237 319.481 49.258 317.682 49.9267C316.557 50.3725 315.77 50.5953 314.983 50.9297C314.195 51.264 313.408 51.4869 312.396 51.9327C312.846 53.7157 313.296 55.3874 313.745 56.9476C314.195 58.5078 314.645 59.9566 314.983 61.4053C315.432 62.8541 315.882 64.1914 316.332 65.6401C316.782 67.0889 317.344 68.5377 317.907 69.9864C318.469 71.5466 319.256 73.1068 320.043 74.7785C322.068 74.4441 322.967 74.1098 324.992 73.664Z" fill="white"/>
<path d="M346.81 75.6699C346.248 75.1127 345.911 74.444 345.798 73.6639C345.461 71.8809 345.123 70.0978 344.898 68.2032C344.561 66.4202 344.336 64.5256 344.111 62.7425C343.886 60.9595 343.661 59.1764 343.436 57.3933C343.212 55.6102 342.987 53.8271 342.762 52.044C342.537 50.2609 342.312 48.4778 342.199 46.5833C341.974 44.6888 341.862 42.9057 341.637 41.0112C341.525 40.1196 341.749 39.451 342.312 38.7823C342.874 38.2251 343.549 37.8908 344.561 37.7793C345.573 37.6679 346.248 37.7793 346.81 38.2251C347.373 38.6709 347.71 39.3395 347.71 40.2311C347.823 41.7913 347.935 43.4629 348.047 45.1346C348.16 46.8062 348.272 48.3664 348.497 50.0381C348.722 51.7097 348.835 53.2699 348.947 54.8301C349.06 56.3903 349.285 58.0619 349.397 59.6221C349.51 61.1823 349.734 62.854 349.959 64.4142C350.184 65.9744 350.297 67.646 350.522 69.3177C350.747 70.9893 350.859 72.5495 351.084 74.1097C351.196 75.0013 351.084 75.6699 350.634 76.0042C350.297 76.45 349.734 76.5615 348.947 76.45C348.047 76.45 347.373 76.2271 346.81 75.6699Z" fill="white"/>
<path d="M384.71 87.7058C384.71 88.4859 384.373 88.9317 383.811 89.1545C383.248 89.3774 382.461 89.3774 381.674 89.1545C381.112 88.9317 380.662 88.7088 380.099 88.3745C379.65 88.0401 379.2 87.4829 378.862 86.9257C377.963 85.3655 377.175 83.9167 376.388 82.5794C375.601 81.1307 374.926 79.7933 374.139 78.2331C373.352 76.6729 372.452 74.8899 371.327 72.7724C370.54 71.1008 369.64 69.7635 368.74 68.7605C367.841 67.7575 366.716 67.0889 365.367 66.4202C363.117 65.4172 362.33 64.9714 360.868 64.4142C360.98 66.4202 361.093 68.0918 361.205 69.5406C361.318 70.9894 361.43 72.3267 361.43 73.664C361.543 75.0013 361.543 76.3386 361.655 77.7874C361.655 78.7904 361.43 79.3476 361.093 79.5705C360.643 79.9048 360.081 79.7933 359.406 79.5705C358.731 79.2361 358.056 78.9018 357.607 78.2331C357.157 77.5645 356.932 76.8958 356.819 75.8928C356.707 74.3326 356.594 72.661 356.482 70.9894C356.369 69.3177 356.257 67.6461 356.032 65.9744C355.92 64.3028 355.807 62.6311 355.582 60.9595C355.47 59.2878 355.357 57.6162 355.132 55.9446C355.02 54.2729 354.907 52.6013 354.795 50.9296C354.683 49.258 354.57 47.4749 354.458 45.8033C354.345 44.1316 354.345 42.3485 354.233 40.7883C354.233 39.8968 354.458 39.2281 354.907 38.7824C355.357 38.3366 356.032 38.2251 356.707 38.3366C358.056 38.5595 359.069 38.8938 359.968 39.2281C360.868 39.5625 362.105 40.1197 363.567 40.6769C365.029 41.2341 366.604 41.9028 368.516 42.5714C370.09 43.1286 371.44 43.6858 372.789 44.2431C374.139 44.8003 375.263 45.4689 376.276 46.0261C377.288 46.6948 378.187 47.3635 379.087 48.255C380.324 49.4809 381.224 50.8182 381.786 52.4898C382.349 54.1615 382.686 56.056 382.798 58.2849C382.798 60.0679 382.686 61.7396 382.349 63.1884C382.011 64.6371 381.449 65.863 380.662 66.866C379.874 67.869 378.862 68.5376 377.738 68.9834C376.613 69.4292 375.263 69.5406 373.689 69.3177C374.814 69.9864 375.713 70.9894 376.501 71.9923C377.288 73.1068 378.187 74.4441 378.975 76.1157C379.987 78.2331 380.774 79.7933 381.561 81.2421C382.349 82.6909 383.023 84.1396 383.923 85.9227C384.485 86.4799 384.71 87.1486 384.71 87.7058ZM374.476 61.4053C375.713 60.5137 376.163 58.8421 376.051 56.2789C375.938 55.053 375.826 53.9386 375.376 52.9356C375.039 51.9326 374.476 51.1525 373.801 50.3724C373.127 49.5923 372.339 49.0351 371.215 48.3664C370.203 47.8092 368.965 47.252 367.616 46.6948C365.704 45.9147 364.242 45.3575 362.78 44.6888C361.318 44.0202 360.418 43.6858 359.181 43.2401C359.294 44.8003 359.294 46.249 359.406 47.6978C359.518 49.1465 359.631 50.4839 359.743 52.0441C359.856 53.6043 359.968 55.2759 360.193 57.2819C361.43 57.7276 362.443 58.1734 363.905 58.8421C365.367 59.5107 366.716 60.1794 368.628 60.848C369.978 61.4053 371.215 61.7396 372.114 61.7396C373.127 62.0739 373.914 61.851 374.476 61.4053Z" fill="white"/>
<path d="M391.346 90.8264C390.783 90.1577 390.558 89.3776 390.558 88.3746C390.558 86.703 390.558 84.8084 390.558 83.0254C390.558 81.2423 390.558 79.4592 390.558 77.5647C390.558 75.7816 390.558 73.9985 390.558 72.2154C390.558 70.4323 390.558 68.6492 390.558 66.9776C390.558 65.1945 390.558 63.4114 390.558 61.6283C390.558 59.8452 390.558 58.0621 390.558 56.1676C390.558 54.3845 390.558 52.6014 390.558 50.8184C390.558 49.8154 390.896 49.1467 391.458 48.8124C392.133 48.3666 392.92 48.3666 393.932 48.4781C395.057 48.7009 395.844 49.0353 396.406 49.7039C396.969 50.3726 397.306 51.1527 397.306 52.0442C397.306 53.7159 397.306 55.6104 397.194 57.3935C397.081 59.1766 397.081 60.9597 397.081 62.7427C397.081 64.5258 396.969 66.3089 396.969 67.9806C396.969 69.7636 396.856 71.4353 396.856 73.2184C396.856 75.0015 396.744 76.6731 396.744 78.4562C396.744 80.2393 396.631 82.0224 396.631 83.8055C396.631 85.5885 396.519 87.3716 396.519 89.1547C396.519 90.1577 396.294 90.8264 395.732 91.2721C395.169 91.7179 394.495 91.9408 393.595 91.7179C392.583 91.8294 391.908 91.495 391.346 90.8264Z" fill="white"/>
<path d="M427.109 69.0948C427.334 69.5406 427.446 70.0978 427.334 70.8779C426.996 73.2182 426.772 74.8898 426.547 76.5615C426.322 78.2331 426.097 79.9047 425.872 81.9107C425.647 83.3595 425.422 84.3625 425.085 84.9197C424.747 85.5883 424.072 86.1455 423.285 86.8142C422.273 87.4829 421.261 88.263 420.024 88.9316C418.787 89.6003 417.549 90.1575 416.425 90.6033C415.075 91.049 413.838 91.2719 412.601 91.1605C411.364 91.049 410.239 90.8261 409.227 90.3804C408.215 89.8232 407.203 89.0431 406.416 88.0401C405.628 87.0371 404.954 85.6998 404.391 84.0281C404.054 82.9137 403.716 81.6878 403.492 80.462C403.267 79.2361 403.154 77.6759 403.042 76.2271C402.929 74.6669 402.929 73.1067 403.042 71.3236C403.154 69.652 403.267 68.0918 403.492 66.5316C403.716 65.0828 404.054 63.6341 404.391 62.4082C404.729 61.1823 405.178 59.9565 405.741 58.9535C406.528 57.3933 407.428 56.1674 408.327 55.1644C409.34 54.1614 410.464 53.3813 411.589 52.8241C412.826 52.2669 414.063 51.9326 415.413 51.8211C416.762 51.7097 418.112 51.7097 419.461 51.8211C421.373 52.044 422.835 52.4898 424.297 53.1584C425.647 53.8271 426.884 54.6072 428.009 55.6102C428.234 55.9445 428.458 56.2788 428.571 56.5017C428.683 56.8361 428.683 57.1704 428.683 57.6162C428.683 58.2848 428.458 58.842 428.121 59.3992C427.784 59.845 427.446 60.1793 426.996 60.1793C426.772 60.1793 426.547 60.1793 426.322 60.0679C426.097 59.9565 425.872 59.7336 425.647 59.5107C424.635 58.5077 423.735 57.7276 422.835 57.2818C421.936 56.8361 420.811 56.5017 419.574 56.5017C418.112 56.3903 416.762 56.6132 415.525 57.0589C414.288 57.5047 413.276 58.3963 412.376 59.5107C411.814 60.2908 411.252 61.2938 410.802 62.4082C410.352 63.5226 410.014 64.8599 409.677 66.4201C409.34 67.9803 409.115 69.652 409.002 71.5465C408.777 74.444 408.777 76.8958 409.002 79.0132C409.227 81.0192 409.677 82.6908 410.352 83.8052C411.027 85.0311 411.926 85.6998 412.938 86.1455C413.951 86.5913 415.188 86.4799 416.65 86.1455C418.337 85.6998 419.911 84.8082 421.598 83.5824C421.711 81.9107 421.936 80.462 422.048 79.0132C422.273 77.5644 422.385 76.1157 422.723 74.1097C421.036 74.5555 420.249 74.6669 418.562 75.0013C417.999 75.1127 417.549 74.8898 417.212 74.444C416.875 73.9983 416.875 73.3296 416.987 72.4381C417.1 71.5465 417.325 70.7664 417.774 70.3207C418.224 69.7634 418.674 69.5406 419.236 69.4291C420.586 69.3177 421.486 69.2062 422.498 69.0948C423.51 68.9833 424.41 68.7605 425.759 68.5376C426.434 68.4261 426.884 68.649 427.109 69.0948Z" fill="white"/>
<path d="M435.544 81.7994C433.97 81.2422 432.845 80.0163 432.17 77.7874C431.833 76.673 431.72 75.3357 431.72 73.8869C431.72 72.3267 431.833 70.6551 432.17 68.872C432.395 66.9775 432.845 65.3058 433.295 63.7456C433.745 62.1854 434.307 60.7367 434.869 59.5108C435.432 58.2849 436.106 57.1705 436.894 56.2789C437.681 55.3874 438.468 54.6073 439.368 53.9386C440.267 53.27 441.28 52.7128 442.404 52.3784C443.529 52.0441 444.654 51.5983 445.891 51.3755C447.128 51.1526 448.252 50.9297 449.377 50.9297C450.502 50.9297 451.514 51.0411 452.414 51.264C454.213 51.8212 455.675 52.8242 456.687 54.3844C457.137 55.1645 457.474 56.0561 457.699 57.059C457.924 58.062 457.924 59.1765 457.699 60.5138C457.474 61.8511 457.137 63.1884 456.687 64.5257C456.237 65.863 455.563 67.3118 454.775 68.7606C453.988 70.2093 453.088 71.5466 452.076 72.8839C451.064 74.2213 450.052 75.4471 448.927 76.5616C447.803 77.676 446.678 78.679 445.441 79.4591C444.316 80.2392 443.079 80.9078 441.842 81.3536C440.605 81.7994 439.48 82.1337 438.468 82.2451C437.231 82.1337 436.331 82.0223 435.544 81.7994ZM448.927 71.2123C449.827 69.9864 450.614 68.5377 451.176 67.0889C451.739 65.6402 452.189 64.08 452.414 62.4083C452.639 60.7367 452.639 59.5108 452.414 58.3964C452.189 57.2819 451.739 56.5018 451.176 55.8332C450.502 55.1645 449.827 54.8302 448.927 54.6073C448.028 54.3844 447.015 54.4959 445.778 54.7187C444.541 54.9416 443.529 55.3874 442.517 55.9446C441.617 56.5018 440.717 57.3934 439.93 58.3964C439.143 59.3993 438.581 60.7367 438.018 62.1854C437.456 63.6342 437.118 65.4173 436.781 67.4232C436.444 69.4292 436.331 71.1009 436.444 72.4382C436.556 73.7755 436.781 74.8899 437.343 75.67C437.793 76.4501 438.468 76.8959 439.368 77.0073C440.267 77.1188 441.28 76.8959 442.517 76.4501C443.754 76.0043 444.879 75.2242 445.891 74.3327C447.015 73.5526 448.028 72.4382 448.927 71.2123Z" fill="white"/>
<path d="M462.648 62.4083C462.423 62.2968 462.31 62.0739 462.31 61.6282C462.423 59.8451 462.535 58.5078 462.423 57.2819C462.31 56.056 462.31 54.9416 462.198 53.7157C462.085 52.4898 461.861 51.1525 461.636 49.5923C461.636 49.4809 461.636 49.3694 461.636 49.258C461.636 48.5893 461.861 47.9207 462.31 47.3635C462.76 46.8062 463.435 46.3605 464.222 46.0261C465.01 45.8033 465.684 45.6918 466.247 45.9147C466.809 46.1376 467.146 46.5834 467.146 47.252C467.146 47.3635 467.146 47.4749 467.146 47.5863C467.146 49.258 467.034 50.4839 466.921 51.7097C466.809 52.9356 466.584 54.05 466.359 55.2759C466.134 56.5018 465.797 57.9505 465.234 59.8451C465.122 60.2908 464.897 60.7366 464.56 61.1824C464.222 61.6282 463.885 61.9625 463.435 62.1854C463.21 62.4083 462.873 62.5197 462.648 62.4083ZM459.274 71.658C458.936 71.3237 458.936 70.5436 459.161 69.5406C459.386 68.5376 459.949 67.6461 460.623 66.6431C461.298 65.7515 462.085 64.9714 462.985 64.5257C463.885 63.9685 464.56 63.857 464.897 64.0799C465.347 64.3028 465.347 64.86 465.122 65.863C464.785 66.866 464.222 67.869 463.435 68.9834C462.648 70.0978 461.748 70.8779 460.961 71.4351C460.286 71.9923 459.611 71.9923 459.274 71.658Z" fill="white"/>
<path d="M262.687 14.4876C266.724 14.4876 269.997 11.2444 269.997 7.24379C269.997 3.24316 266.724 0 262.687 0C258.65 0 255.377 3.24316 255.377 7.24379C255.377 11.2444 258.65 14.4876 262.687 14.4876Z" fill="#3DAE8A"/>
<path d="M407.315 20.2826C405.516 20.2826 403.717 20.2826 402.03 20.1711C401.355 20.1711 400.905 19.6139 400.905 19.0567C400.905 18.4995 401.467 17.9423 402.03 17.9423C427.671 18.8338 453.313 13.1502 476.031 1.33726C476.593 1.00293 477.268 1.22582 477.493 1.78303C477.83 2.34025 477.605 3.0089 477.043 3.23179C455.675 14.4875 431.608 20.2826 407.315 20.2826Z" fill="#3DAE8A"/>
<path d="M376.275 131.949C364.692 131.949 352.995 129.051 342.874 123.59C342.311 123.256 342.086 122.587 342.424 122.03C342.761 121.473 343.436 121.25 343.998 121.584C356.144 128.159 370.427 130.834 384.26 129.274C384.935 129.162 385.385 129.608 385.497 130.277C385.61 130.834 385.16 131.391 384.485 131.503C381.674 131.837 378.974 131.949 376.275 131.949Z" fill="#3DAE8A"/>
<path d="M519.667 70.0975C519.329 70.0975 519.105 69.986 518.88 69.7631C518.43 69.3174 518.43 68.6487 518.88 68.2029C528.327 58.6188 536.424 47.8089 542.947 35.9959C543.284 35.4387 543.959 35.2158 544.521 35.5501C545.084 35.8845 545.309 36.5531 544.971 37.1104C538.336 49.0347 530.126 60.0676 520.567 69.7631C520.229 69.986 520.004 70.0975 519.667 70.0975Z" fill="#3DAE8A"/>
</svg>
