<svg width="60" height="68" viewBox="0 0 60 68" fill="none" xmlns="http://www.w3.org/2000/svg">
<path d="M39.9999 42.2169C39.6626 42.2169 39.3252 41.9759 39.2771 41.5904C39.2289 41.2048 39.4698 40.8193 39.8554 40.7711L59.8554 37.5904C59.9036 37.5904 59.9518 37.5904 59.9518 37.5904C59.9518 36.0964 59.8072 34.5542 59.5662 33.012V32.9638C58.9879 29.4458 55.6144 27.0843 52.0963 27.6144L27.8554 30.1205C27.8554 30.1205 29.1084 24 27.9036 19.3253C26.6506 14.6506 25.3493 6.36143 16.9156 8.67469L13.4457 29.3494L19.1807 65.494C19.4698 65.5903 19.8072 65.7349 20.0963 65.8313C24.6746 67.4699 29.6867 68 34.8433 67.1807C40.6265 66.265 45.7349 63.759 49.8313 60.1446L37.2048 62.1687C37.1566 62.1687 37.1084 62.1687 37.1084 62.1687C36.771 62.1687 36.4337 61.9277 36.3855 61.5422C36.3373 61.1566 36.5783 60.7711 36.9638 60.7229L50.5542 58.5542C50.7951 58.506 51.0843 58.6024 51.2289 58.7952C53.8795 56.1446 55.9999 53.0602 57.4939 49.6385L40.0481 52.4337C39.9999 52.4337 39.9518 52.4337 39.9518 52.4337C39.6144 52.4337 39.2771 52.1928 39.2289 51.8072C39.1807 51.4217 39.4216 51.0361 39.8072 50.9879L57.6867 48.1446C57.8313 48.1446 57.9758 48.1446 58.0722 48.1928C59.1807 45.3012 59.8554 42.1687 59.9518 38.9879L40.0963 42.1687C40.0963 42.2169 40.0481 42.2169 39.9999 42.2169Z" fill="#8D48E6"/>
<path d="M12.1927 29.3012L0.722794 31.1325L0.674601 31.3253C-0.0964831 34.988 -0.192869 38.6988 0.385445 42.4096C1.97581 52.3373 8.38544 60.7711 17.4939 65.012L17.9276 65.2048L12.2409 29.5422L12.1927 29.3012ZM10.6505 52.9157C11.8071 52.7229 12.9156 53.5422 13.1083 54.6988C13.3011 55.8554 12.4818 56.9639 11.3252 57.1566C10.1686 57.3494 9.06014 56.5301 8.86737 55.3735C8.6746 54.1687 9.49388 53.1084 10.6505 52.9157Z" fill="#8D48E6"/>
<path d="M18.5541 5.54217C18.5541 5.87952 18.7951 6.16867 19.1324 6.26506C19.1806 6.26506 19.2288 6.26506 19.277 6.26506C19.6625 6.26506 19.9999 5.92771 19.9999 5.54217L19.5662 0.722892C19.518 0.337349 19.2288 0 18.7951 0C18.4095 0 18.0722 0.337349 18.0722 0.722892L18.5541 5.54217Z" fill="#8D48E6"/>
<path d="M25.9276 7.95181C26.024 8 26.1204 8 26.2168 8C26.506 8 26.7951 7.80723 26.8915 7.56627L29.1084 3.95181C29.2529 3.56627 29.0602 3.18072 28.7228 3.03615C28.3373 2.89157 27.9517 3.08434 27.8072 3.42169L25.5421 6.98795C25.3975 7.3735 25.5903 7.80723 25.9276 7.95181Z" fill="#8D48E6"/>
<path d="M12.8191 8.86747C12.9637 9.01204 13.1565 9.10843 13.3493 9.10843C13.542 9.10843 13.6866 9.06024 13.8312 8.91566C14.1203 8.67469 14.1685 8.19277 13.8794 7.90361L10.8432 5.87951C10.6023 5.59036 10.1203 5.54216 9.83118 5.83132C9.54202 6.12048 9.49383 6.55421 9.78299 6.84337L12.8191 8.86747Z" fill="#8D48E6"/>
</svg>
