<?xml version="1.0" encoding="utf-8"?>
<!-- Generator: Adobe Illustrator 24.1.0, SVG Export Plug-In . SVG Version: 6.00 Build 0)  -->
<svg version="1.1" id="Layer_1" xmlns="http://www.w3.org/2000/svg" xmlns:xlink="http://www.w3.org/1999/xlink" x="0px" y="0px"
	 viewBox="0 0 913.5 192.2" style="enable-background:new 0 0 913.5 192.2;" xml:space="preserve">
<style type="text/css">
	.st0{fill:#00754A;}
</style>
<g id="Layer_2_1_">
	<g id="v3">
		<path class="st0" d="M149.9,123.1c-1.4-1.5-2.1-3.4-2-5.5v-44c-0.4-3.5,2.1-6.6,5.5-7c0.5-0.1,1-0.1,1.5,0h21
			c6.4,0,11.4,1.6,15,4.9s5.4,7.8,5.3,13.6c0,5.8-1.8,10.3-5.4,13.6s-8.6,4.9-14.9,4.9H163v14c0.1,2-0.6,4-2,5.5
			c-1.5,1.4-3.5,2.1-5.6,2C153.4,125.2,151.3,124.5,149.9,123.1z M180,90.6c1.3-1.2,2-2.9,2-5.3c0-4.8-2.7-7.2-8.2-7.2H163v14.2
			h10.8C176.6,92.3,178.7,91.7,180,90.6z"/>
		<path class="st0" d="M205,123.4c-1.5-1.3-2.2-3.1-2.1-5.1V73.1c-0.1-1.9,0.6-3.8,2.1-5.1c3.1-2.3,7.3-2.3,10.4,0
			c1.5,1.3,2.2,3.2,2.1,5.1v45.3c0.1,1.9-0.6,3.8-2.1,5.1C212.3,125.7,208.1,125.7,205,123.4L205,123.4z"/>
		<path class="st0" d="M262.3,113.1c0.8,1.1,1.3,2.5,1.2,3.9c0,2.2-1.2,4.1-3.2,5c-2.1,1-4.3,1.8-6.6,2.3c-2.3,0.6-4.6,1-7,1
			c-4.1,0.1-8.1-0.8-11.8-2.6c-3.2-1.6-5.9-4.2-7.7-7.3c-1.9-3.4-2.8-7.3-2.7-11.2c-0.1-3.8,0.8-7.5,2.6-10.9
			c1.7-3.1,4.2-5.7,7.2-7.5c3.2-1.8,6.8-2.7,10.5-2.7c3.5-0.1,6.9,0.8,9.9,2.5c2.8,1.6,5.1,4.1,6.6,7c1.6,3.3,2.4,6.9,2.4,10.6
			c0.1,1-0.2,2.1-0.9,2.9c-0.6,0.7-1.6,1.1-2.5,1h-21.7c0.4,2.6,1.2,4.5,2.5,5.7c1.7,1.3,3.7,1.9,5.8,1.7c1.3,0,2.5-0.1,3.8-0.5
			c1.3-0.4,2.6-0.8,3.9-1.3c0.8-0.3,1.6-0.6,2.4-0.9c0.7-0.2,1.4-0.4,2.2-0.4C260.4,111.6,261.6,112.1,262.3,113.1z M240.6,94.9
			c-1.3,1.5-2,3.4-2.1,5.4h12.9c-0.3-4.8-2.4-7.3-6.2-7.3C243.5,92.9,241.8,93.6,240.6,94.9L240.6,94.9z"/>
		<path class="st0" d="M311.5,68.1c1.4,1.2,2.1,2.9,2.1,4.7v45.5c0.1,1.9-0.6,3.7-2,4.9c-3,2.3-7.2,2.4-10.2,0.2
			c-1.3-1.1-2.1-2.7-2.2-4.4c-1.2,2-3,3.5-5.1,4.5c-5.3,2.5-11.6,2.1-16.6-1c-2.8-1.9-5-4.5-6.4-7.5c-1.6-3.5-2.4-7.3-2.3-11.1
			c-0.1-3.8,0.7-7.6,2.3-11c1.4-3,3.6-5.5,6.3-7.3c2.8-1.7,6-2.6,9.3-2.6c2.5,0,4.9,0.5,7.1,1.6c2,0.9,3.8,2.4,5,4.2V72.6
			c-0.1-1.7,0.6-3.4,1.9-4.6c1.5-1.2,3.3-1.8,5.2-1.7C308,66.2,309.9,66.8,311.5,68.1z M297.1,111.7c1.4-1.7,2.1-4.3,2.1-7.6
			s-0.7-5.8-2.1-7.4c-3-3.2-8.1-3.4-11.3-0.4c-0.2,0.1-0.3,0.3-0.4,0.4c-1.4,1.7-2.1,4.1-2,7.3c0,3.2,0.7,5.7,2.1,7.6
			c1.4,1.8,3.5,2.8,5.8,2.7C293.5,114.5,295.7,113.5,297.1,111.7L297.1,111.7z"/>
		<path class="st0" d="M363.7,85.2c1.3,1.3,2.1,3,2,4.9v29.6c0,6.7-2,11.7-6,15.2c-4,3.5-9.9,5.2-17.8,5.1c-2.9,0-5.7-0.3-8.5-0.8
			c-2.4-0.4-4.7-1.2-6.8-2.4c-0.9-0.5-1.8-1.2-2.4-2.1c-0.6-0.9-0.9-1.9-0.9-2.9c-0.1-1.4,0.4-2.7,1.2-3.9c0.7-1,1.9-1.5,3.1-1.5
			c1.8,0.2,3.6,0.6,5.3,1.2c1.7,0.6,3.2,1,4.5,1.3c1.3,0.3,2.7,0.4,4,0.4c3.3,0,5.8-0.7,7.4-2.1s2.3-3.6,2.3-6.6v-3.1
			c-1.3,1.9-3.1,3.4-5.2,4.3c-2.3,1.1-4.8,1.6-7.3,1.6c-3.3,0.1-6.5-0.8-9.4-2.5c-2.8-1.7-5-4.1-6.4-7c-1.6-3.3-2.4-6.9-2.3-10.6
			c-0.1-3.7,0.7-7.3,2.3-10.6c1.4-2.9,3.6-5.4,6.4-7.1c2.8-1.7,6.1-2.6,9.4-2.5c2.6,0,5.1,0.5,7.4,1.6c2.1,1,3.9,2.6,5.2,4.5
			c0-1.7,0.8-3.3,2.1-4.3c1.4-1.1,3.2-1.7,5-1.6C360.3,83.3,362.2,83.9,363.7,85.2z M349.1,110.1c1.5-1.9,2.3-4.3,2.1-6.7
			c0.1-2.5-0.6-4.9-2.1-6.8c-3.3-3.3-8.6-3.3-11.9,0c-1.4,1.6-2.1,3.9-2.1,6.9c-0.1,2.4,0.6,4.8,2.2,6.7c1.5,1.6,3.7,2.5,5.9,2.4
			C345.4,112.7,347.6,111.8,349.1,110.1z"/>
		<path class="st0" d="M410.5,113.1c0.8,1.1,1.3,2.5,1.2,3.9c0,2.2-1.2,4.1-3.2,5c-2.1,1-4.3,1.8-6.6,2.3c-2.3,0.6-4.6,0.9-7,1
			c-4.1,0.1-8.1-0.8-11.8-2.6c-3.2-1.6-5.9-4.2-7.7-7.3c-1.9-3.4-2.8-7.3-2.7-11.2c-0.1-3.8,0.8-7.5,2.6-10.9
			c1.6-3.1,4.2-5.7,7.2-7.5c3.2-1.8,6.8-2.8,10.4-2.7c3.5-0.1,6.9,0.8,9.9,2.5c2.8,1.6,5.1,4.1,6.6,7c1.6,3.3,2.4,6.9,2.3,10.6
			c0.1,1-0.2,2.1-0.9,2.9c-0.6,0.7-1.6,1.1-2.5,1h-21.7c0.4,2.6,1.2,4.5,2.5,5.7c1.3,1.2,3.3,1.7,5.8,1.7c1.3,0,2.5-0.1,3.8-0.5
			c1.3-0.4,2.6-0.8,3.9-1.3c0.8-0.3,1.6-0.6,2.4-0.9c0.7-0.2,1.4-0.4,2.2-0.4C408.7,111.6,409.8,112.1,410.5,113.1z M388.8,94.9
			c-1.3,1.5-2,3.4-2,5.4h12.9c-0.3-4.8-2.4-7.3-6.2-7.3C391.7,92.9,390,93.6,388.8,94.9z"/>
		<path class="st0" d="M445.9,119.6c0.5,0.6,0.8,1.4,0.8,2.2c0.1,1-0.4,2-1.3,2.5c-1.1,0.6-2.5,0.9-3.7,0.7l-2.2-0.2
			c-4.4-0.3-7.7-1.7-9.9-4.1c-2.2-2.4-3.3-5.9-3.3-10.6V90.9h-4.9c-2.4,0-3.6-1.1-3.6-3.2c0-0.9,0.3-1.7,0.9-2.3
			c0.8-0.6,1.7-0.9,2.7-0.9h4.9V76c-0.1-1.1,0.3-2.2,1.1-3c0.8-0.7,1.9-1.1,3-1.1c1.1,0,2.2,0.3,3,1.1c0.8,0.8,1.2,1.9,1.1,3v8.5
			h8.1c1-0.1,1.9,0.2,2.7,0.9c1.3,1.3,1.3,3.4,0,4.7c-0.8,0.6-1.7,0.9-2.7,0.8h-8.1v19.9c0,2.6,0.5,4.5,1.6,5.7
			c1.3,1.3,3.1,2,4.9,2.1l2.3,0.2C444.3,118.7,445.2,119,445.9,119.6z"/>
		<path class="st0" d="M460.1,122.6c-3-1.7-5.4-4.2-6.9-7.3c-1.7-3.4-2.5-7.2-2.4-11c-0.1-3.8,0.8-7.6,2.4-11
			c1.5-3.1,3.9-5.6,6.9-7.3c6.5-3.4,14.3-3.4,20.8,0c3,1.7,5.4,4.2,6.9,7.3c1.7,3.4,2.5,7.2,2.4,11c0.1,3.8-0.7,7.6-2.4,11
			c-1.5,3.1-3.9,5.6-6.9,7.3C474.4,126,466.7,126,460.1,122.6z M479,115c1.9-2.4,2.9-5.9,2.9-10.6c0-4.7-1-8.2-3-10.6
			c-4.3-4.6-11.5-4.9-16.1-0.6c-0.2,0.2-0.4,0.4-0.6,0.6c-2,2.4-3,6-3,10.6c0,4.6,1,8.1,2.9,10.6c1.9,2.4,4.7,3.6,8.4,3.6
			C474.2,118.6,477,117.4,479,115z"/>
		<path class="st0" d="M504.7,123.1c-1.4-1.5-2.1-3.4-2-5.5v-44c-0.4-3.5,2.1-6.6,5.5-7c0.5-0.1,1-0.1,1.5,0h21
			c6.4,0,11.4,1.6,15,4.9s5.3,7.8,5.4,13.7c0,5.8-1.8,10.3-5.4,13.6s-8.6,4.9-14.9,4.9h-12.9v14c0.1,2-0.6,4-2.1,5.5
			c-1.5,1.4-3.5,2.1-5.6,2C508.1,125.2,506.2,124.5,504.7,123.1z M534.8,90.6c1.3-1.2,2-2.9,2-5.3c0-4.8-2.7-7.2-8.2-7.2h-10.8v14.2
			h10.8C531.4,92.3,533.5,91.7,534.8,90.6L534.8,90.6z"/>
		<path class="st0" d="M587,84.6c1.2,1.2,1.8,2.8,1.7,4.5c0,2.2-0.5,3.8-1.5,4.8c-1,1-2.8,1.6-5.5,1.9l-2.5,0.2
			c-2.7,0.3-4.7,1.2-5.9,2.6c-1.3,1.6-1.9,3.7-1.8,5.7v14c0.1,1.9-0.6,3.8-2.1,5.1c-3.1,2.2-7.3,2.2-10.4,0
			c-1.5-1.3-2.2-3.1-2.1-5.1V89.9c-0.1-1.9,0.7-3.7,2.1-4.8c1.4-1.1,3.2-1.8,5-1.7c1.8-0.1,3.5,0.5,4.9,1.7c1.3,1.2,1.9,2.9,1.8,4.6
			v1.6c0.8-2.3,2.3-4.3,4.3-5.6c1.9-1.3,4-2,6.3-2.1l1.2-0.1C584.1,83.1,585.8,83.6,587,84.6z"/>
		<path class="st0" d="M599.6,122.7c-3.3-1.6-6-4.2-7.8-7.4c-1.9-3.4-2.9-7.3-2.8-11.2c-0.1-3.9,0.9-7.7,2.8-11.1
			c1.8-3.1,4.5-5.7,7.8-7.3c7.5-3.4,16-3.4,23.5,0c3.2,1.6,5.9,4.1,7.8,7.3c1.9,3.4,2.8,7.2,2.8,11.1c0.1,3.9-0.9,7.8-2.8,11.2
			c-1.8,3.2-4.5,5.7-7.8,7.4C615.6,126.1,607,126.1,599.6,122.7L599.6,122.7z M619.1,104.1c0-6.8-2.6-10.2-7.8-10.2
			s-7.8,3.4-7.8,10.2c0,6.8,2.6,10.2,7.8,10.2S619.1,110.9,619.1,104.1z"/>
		<path class="st0" d="M669.5,119.6c0.1,1.7-0.8,3.4-2.2,4.3c-1.5,0.9-3.6,1.3-6.3,1.2l-2.3-0.2c-4.9-0.4-8.7-1.9-11.2-4.5
			s-3.8-6.2-3.8-10.9V94.9h-2.4c-4.4,0-6.6-1.8-6.6-5.4c0-3.6,2.2-5.4,6.6-5.3h2.4v-5.3c-0.1-1.9,0.6-3.7,2-5
			c3.1-2.5,7.6-2.5,10.7,0c1.4,1.3,2.1,3.1,2,5v5.3h4.5c4.4,0,6.6,1.8,6.6,5.3c0,3.6-2.2,5.4-6.6,5.4h-4.5v15.8c0,1,0.3,1.9,0.9,2.6
			c0.6,0.7,1.5,1.1,2.4,1.2l2.4,0.2C667.7,114.9,669.5,116.5,669.5,119.6z"/>
		<path class="st0" d="M709.8,113.1c0.8,1.1,1.3,2.5,1.2,3.9c0,2.2-1.2,4.1-3.2,5c-2.1,1-4.3,1.8-6.6,2.3c-2.3,0.6-4.6,0.9-7,1
			c-4.1,0.1-8.1-0.8-11.8-2.6c-3.2-1.6-5.9-4.2-7.7-7.3c-1.9-3.4-2.8-7.3-2.7-11.2c-0.1-3.8,0.8-7.5,2.6-10.9
			c1.7-3.1,4.2-5.7,7.2-7.5c3.2-1.8,6.8-2.7,10.5-2.7c3.5-0.1,6.9,0.8,9.9,2.5c2.8,1.6,5.1,4.1,6.6,7c1.6,3.3,2.4,6.9,2.3,10.6
			c0.1,1-0.2,2.1-0.9,2.9c-0.6,0.7-1.6,1.1-2.5,1H686c0.4,2.6,1.2,4.5,2.5,5.7c1.7,1.3,3.7,1.9,5.8,1.7c1.3,0,2.5-0.1,3.8-0.5
			c1.3-0.4,2.6-0.8,3.9-1.3c0.8-0.3,1.6-0.6,2.4-0.9c0.7-0.2,1.4-0.4,2.2-0.4C707.9,111.6,709,112.1,709.8,113.1z M688,94.9
			c-1.3,1.5-2,3.4-2.1,5.4h12.9c-0.3-4.8-2.4-7.2-6.2-7.2C690.9,93,689.2,93.6,688,94.9z"/>
		<path class="st0" d="M722,119.7c-3.8-3.7-5.7-8.8-5.8-15.2c-0.1-3.9,0.9-7.8,2.8-11.2c1.8-3.2,4.6-5.8,7.8-7.5
			c3.6-1.8,7.5-2.7,11.5-2.6c2.3,0,4.6,0.3,6.9,0.9c2.1,0.5,4.2,1.4,6.1,2.6c1.7,1,2.7,2.8,2.6,4.8c0.1,1.5-0.4,2.9-1.2,4.2
			c-0.7,1-1.9,1.6-3.1,1.6c-0.8,0-1.6-0.1-2.4-0.4c-0.9-0.3-1.7-0.7-2.5-1.1c-1.1-0.5-2-0.9-2.8-1.1c-0.8-0.3-1.7-0.4-2.5-0.4
			c-5.4,0-8.1,3.3-8.1,9.9c0,3.3,0.7,5.8,2.1,7.5c1.5,1.8,3.7,2.7,6,2.6c0.9,0,1.7-0.1,2.6-0.4c0.9-0.3,1.8-0.7,2.7-1.1
			c1.1-0.5,2-0.9,2.7-1.1c0.7-0.3,1.5-0.4,2.3-0.4c1.2,0,2.4,0.6,3.1,1.6c0.8,1.2,1.3,2.7,1.2,4.2c0,1-0.2,2-0.7,2.8
			c-0.4,0.8-1,1.5-1.8,1.9c-4.2,2.4-9,3.6-13.8,3.4C731.1,125.2,725.9,123.4,722,119.7z"/>
		<path class="st0" d="M791.2,119.6c0.1,1.7-0.8,3.4-2.2,4.3c-1.9,1-4.2,1.4-6.3,1.2l-2.3-0.2c-4.9-0.4-8.7-1.9-11.2-4.5
			s-3.8-6.2-3.8-10.9V94.9H763c-4.4,0-6.6-1.8-6.6-5.4c0-3.6,2.2-5.4,6.6-5.3h2.4v-5.3c-0.1-1.9,0.6-3.7,2-5c3.1-2.5,7.5-2.5,10.7,0
			c1.4,1.3,2.1,3.1,2,5v5.3h4.5c4.4,0,6.6,1.8,6.6,5.3c0,3.6-2.2,5.4-6.6,5.4H780v15.8c0,1,0.3,1.9,1,2.6c0.6,0.7,1.5,1.1,2.4,1.2
			l2.4,0.2C789.4,114.9,791.2,116.5,791.2,119.6z"/>
		<path class="st0" d="M859.6,68.3c1.4,1.4,2.1,3.4,2,5.3v44.7c0.1,1.8-0.6,3.6-1.8,4.9c-2.7,2.4-6.8,2.4-9.5,0
			c-1.3-1.3-1.9-3.1-1.8-4.9V94.2l-9.4,17.2c-0.7,1.5-1.7,2.7-3,3.7c-2.2,1.5-5.2,1.5-7.4,0c-1.3-1-2.3-2.3-3-3.7l-9.3-16.8v23.7
			c0.1,1.8-0.6,3.6-1.8,4.9c-2.7,2.4-6.8,2.4-9.5,0c-1.3-1.3-1.9-3.1-1.8-4.9V73.7c-0.1-2,0.6-3.9,2-5.3c2.5-2.4,6.3-2.7,9.2-0.8
			c1.3,1,2.3,2.2,3,3.7l15.1,28.4l15-28.4c1.7-3.3,4-4.9,6.9-4.9C856.3,66.1,858.2,66.9,859.6,68.3z"/>
		<path class="st0" d="M872.8,122.8c-1.3-1.4-1.9-3.3-1.8-5.2v-44c-0.4-3.5,2.1-6.6,5.5-7c0.5-0.1,1-0.1,1.5,0h28.4
			c1.9-0.1,3.8,0.4,5.3,1.5c1.2,1.1,1.9,2.6,1.8,4.3c0,3.9-2.4,5.9-7.2,5.9h-20.7v11h19.1c4.8,0,7.2,1.9,7.2,5.8
			c0.1,1.6-0.6,3.2-1.8,4.3c-1.6,1.1-3.4,1.6-5.3,1.5h-19.1v12h20.7c4.8,0,7.2,2,7.2,5.9c0.1,1.6-0.6,3.2-1.8,4.3
			c-1.6,1.1-3.4,1.6-5.3,1.5H878C876.1,124.7,874.2,124,872.8,122.8z"/>
		<path class="st0" d="M129.2,109.7l-3.7-8.1c-1.2-2.7-4-4.6-6.6-4.3c-0.1-0.2-0.2-0.4-0.3-0.6l-2.3-12.8c-0.7-3.1-3.1-5.5-6.2-6.1
			l-3.9-0.7c-0.6-0.2-1-0.7-1.1-1.2l-2-54.8c-0.2-2.9-1.6-5.6-3.8-7.5l-10.2-8c-1.4-1.1-3.2-1.6-5-1.6c-1.3,0-2.5,0.3-3.6,0.9
			l-8,4.3c-1,0.5-2.1,0.7-3.3,0.8c-0.2,0-0.4,0-0.7-0.1c-0.8-0.4-1.4-1-1.7-1.9l-0.8-2.6c-1-3.1-3.8-5.1-7-5.2h-1
			c-3,0.1-5.8,1.6-7.5,4.1l-18.2,28c-1.4,2.4-2.1,5.1-2.1,7.8l0.4,7c0,1.9-0.2,3.8-0.6,5.6l-3.9,13.6c-0.6,1.7-1.4,3.2-2.6,4.6
			L2.9,93.3C1.1,95.5,0,98.2,0,101.1l1.8,72.5c0.2,2.7,1.1,5.4,2.7,7.6l0.2,0.3c0.9,1.2,1.5,2.6,1.8,4.1c0.5,2.9,2.7,5.3,5.5,6.1
			l0.9,0.3c0.6,0.2,1.2,0.3,1.9,0.3c2.6,0,4.9-1.4,6.2-3.6l13.9-26.4c0.3-0.4,0.8-0.6,1.2-0.5l2.2,0.8c1.1,0.4,2.2,0.6,3.4,0.6
			c1.7,0,3.5-0.4,5-1.1l14.5-7.9c2.5-1.5,4.3-3.9,5.1-6.7l2.4-11.1c0.3-0.9,1-1.7,1.9-2.1c0.1,0,0.3-0.1,0.4-0.1
			c0.7,0,1.5,0.3,2,0.8l7.4,8.4c1.3,1.4,3.1,2.2,5,2.2c1.3,0,2.6-0.4,3.7-1.1l38-26.3C129.5,116.2,130.5,112.7,129.2,109.7z
			 M89.5,98.9l-26.6,25.7L36.3,98.9c-8.8-8.8-10-20.5-1.5-27.9c14.5-12.7,28.1,4.1,28.1,4.1S76.6,58.3,91,71
			C99.5,78.5,98.3,90.1,89.5,98.9z"/>
		<path class="st0" d="M76.4,89.3H68v-8.4c0-1-0.8-1.8-1.8-1.8h-6.6c-1,0-1.8,0.8-1.8,1.8v8.4h-8.4c-1,0-1.8,0.8-1.8,1.8
			c0,0,0,0,0,0v6.6c0,1,0.8,1.8,1.8,1.8c0,0,0,0,0,0h8.4v8.5c0,1,0.8,1.8,1.8,1.8h6.6c1,0,1.8-0.8,1.8-1.8v-8.5h8.4
			c1,0,1.8-0.8,1.8-1.8c0,0,0,0,0,0v-6.6C78.2,90.1,77.4,89.3,76.4,89.3z"/>
	</g>
</g>
</svg>
