<svg width="60" height="60" viewBox="0 0 60 60" fill="none" xmlns="http://www.w3.org/2000/svg">
<path d="M30 0C13.4237 0 0 13.4237 0 30C3.05085 30 37.6271 56.4407 37.4746 59.0339C50.4407 55.7288 60 43.9831 60 30C60 13.4237 46.5763 0 30 0ZM43.678 33.4068L30.1525 46.4746L16.6271 33.4068C12.1525 28.9322 11.5424 22.9831 15.8644 19.2203C23.2373 12.7119 30.1525 21.3051 30.1525 21.3051C30.1525 21.3051 37.0678 12.7627 44.4407 19.2203C48.7627 22.9831 48.1525 28.9322 43.678 33.4068Z" fill="#8D48E6"/>
<path d="M0 30L37.7797 58.9831C37.7797 58.9831 46.2712 42.2034 30 30C13.7288 17.7966 0 30 0 30Z" fill="#3DAE8A"/>
</svg>
