<svg width="26" height="25" viewBox="0 0 26 25" fill="none" xmlns="http://www.w3.org/2000/svg">
<path d="M21 11.4167C21 11.5833 21.0833 11.6667 21.0833 11.75C20.9167 12.8333 20.8333 13.9167 20.6666 15C20.6666 15.1667 20.4166 15.3333 20.25 15.3333C19.5 15.3333 18.75 15.3333 18 15.3333C17.5833 15.3333 17.4166 15.4167 17.4166 15.9167C17.4166 18.75 17.4166 21.5833 17.4166 24.4167C17.4166 24.9167 17.5833 25 18 25C19.75 25 21.5833 25 23.3333 25C24.5833 25 25.0833 24.5 25.0833 23.25C25.0833 16.3333 25.0833 9.41667 25.0833 2.5C25.0833 2.16667 25.0833 1.75 25.0833 1.41667C25 0.583333 24.5 0.0833333 23.6666 0C23.1666 0 22.6666 0 22.0833 0C15.25 0 8.41665 0 1.66665 0C0.666648 0 0.083313 0.5 0.083313 1.58333C0.083313 8.83333 0.083313 16.1667 0.083313 23.4167C0.083313 24.5 0.583314 25 1.66665 25C5.33331 25 8.99998 25 12.6667 25C12.9167 25 13.0833 25 13.3333 24.9167C13.3333 21.6667 13.3333 18.5833 13.3333 15.3333C12.25 15.3333 11.1666 15.3333 10.0833 15.3333C10.0833 14.1667 10.0833 13.0833 10.0833 12C10.0833 11.5 10.25 11.4167 10.75 11.4167C11.5833 11.4167 12.5 11.4167 13.4166 11.4167C13.4166 10.3333 13.4166 9.41667 13.4166 8.41667C13.4166 6.25 14.5833 4.58333 16.5 3.91667C18 3.41667 19.5 3.66667 21.0833 3.75C21.1667 3.75 21.3333 4 21.3333 4.16667C21.3333 5 21.3333 5.91667 21.3333 6.75C21.3333 7.16667 21.1666 7.25 20.8333 7.25C20.25 7.25 19.5833 7.25 19 7.25C18.0833 7.25 17.5833 7.66667 17.5 8.58333C17.4166 9.33333 17.5 10 17.4166 10.75C17.4166 11.25 17.5833 11.4167 18.0833 11.4167C18.9167 11.3333 19.9167 11.4167 21 11.4167Z" fill="#60269E"/>
<path d="M21 11.4167C20 11.4167 19 11.4167 18 11.4167C17.5 11.4167 17.3333 11.25 17.3333 10.75C17.4167 10 17.3333 9.33333 17.4167 8.58333C17.5 7.66667 17.9167 7.25 18.9167 7.25C19.5 7.25 20.1667 7.25 20.75 7.25C21.0833 7.25 21.25 7.16667 21.25 6.75C21.25 5.91667 21.25 5 21.25 4.16667C21.25 4 21.0833 3.75 21 3.75C19.5 3.58333 17.9167 3.41667 16.4167 3.91667C14.5 4.5 13.3333 6.25 13.3333 8.41667C13.3333 9.41667 13.3333 10.3333 13.3333 11.4167C12.4167 11.4167 11.5833 11.4167 10.6667 11.4167C10.1667 11.4167 10 11.5833 10 12C10 13.0833 10 14.1667 10 15.3333C11.0833 15.3333 12.1667 15.3333 13.25 15.3333C13.25 18.5833 13.25 21.6667 13.25 24.9167C13 24.9167 12.75 25 12.5833 25C8.91667 25 5.25 25 1.58333 25C0.583335 25 0 24.5 0 23.4167C0 16.1667 0 8.83333 0 1.58333C0 0.583333 0.500001 0 1.58333 0C8.41667 0 15.25 0 22 0C22.5 0 23 0 23.5833 0C24.4167 0 24.9167 0.583333 25 1.41667C25 1.75 25 2.16667 25 2.5C25 9.41667 25 16.3333 25 23.25C25 24.5 24.5 25 23.25 25C21.5 25 19.6667 25 17.9167 25C17.4167 25 17.3333 24.8333 17.3333 24.4167C17.3333 21.5833 17.3333 18.75 17.3333 15.9167C17.3333 15.4167 17.5 15.3333 17.9167 15.3333C18.6667 15.3333 19.4167 15.3333 20.1667 15.3333C20.3333 15.3333 20.5833 15.1667 20.5833 15C20.75 13.9167 20.8333 12.8333 21 11.75C21 11.5833 21 11.5833 21 11.4167Z" fill="#60269E"/>
</svg>
