<svg width="39" height="39" viewBox="0 0 39 39" fill="none" xmlns="http://www.w3.org/2000/svg">
<path d="M19.4176 27.7558C14.7946 27.7558 11.0706 24.0317 11.0706 19.4088C11.0706 14.7858 14.7946 11.0618 19.4176 11.0618C24.0405 11.0618 27.7646 14.7858 27.7646 19.4088C27.7646 24.0317 24.0405 27.7558 19.4176 27.7558Z" fill="white"/>
<path d="M30.3329 0.146484H8.50227C3.87932 0.146484 0.155273 3.87053 0.155273 8.49348V30.3241C0.155273 34.947 3.87932 38.6711 8.50227 38.6711H30.3329C34.9558 38.6711 38.6799 34.947 38.6799 30.3241V8.49348C38.6799 3.87053 34.9558 0.146484 30.3329 0.146484ZM19.4176 30.3241C13.3821 30.3241 8.50227 25.4443 8.50227 19.4088C8.50227 13.3733 13.3821 8.49348 19.4176 8.49348C25.4531 8.49348 30.3329 13.3733 30.3329 19.4088C30.3329 25.4443 25.4531 30.3241 19.4176 30.3241ZM31.1034 9.5208C29.6908 9.5208 28.6635 8.36506 28.6635 7.08091C28.6635 5.66834 29.8192 4.64102 31.1034 4.64102C32.5159 4.64102 33.5433 5.79676 33.5433 7.08091C33.5433 8.49348 32.5159 9.5208 31.1034 9.5208Z" fill="white"/>
</svg>
