<svg width="40" height="40" viewBox="0 0 40 40" fill="none" xmlns="http://www.w3.org/2000/svg">
<path d="M35.3291 0.6875C25.1586 0.6875 14.9881 0.6875 4.81759 0.6875C4.3553 0.6875 4.0471 0.6875 3.7389 0.841598C2.04382 1.1498 0.811035 2.84488 0.811035 4.53996C0.811035 9.6252 0.811035 14.7105 0.811035 19.7957C0.811035 24.8809 0.811035 30.1203 0.811035 35.2055C0.811035 37.517 2.50612 39.2121 4.66349 39.2121C14.834 39.2121 25.1586 39.2121 35.3291 39.2121C37.4865 39.2121 39.1815 37.517 39.1815 35.3596C39.1815 25.1891 39.1815 14.8645 39.1815 4.69406C39.3356 2.38258 37.6405 0.6875 35.3291 0.6875ZM31.3225 14.0941C31.1684 14.2482 31.0143 14.4023 31.0143 14.7105C31.0143 20.258 28.8569 24.7268 24.5422 28.117C22.5389 29.658 20.3815 30.5826 17.916 31.0449C14.9881 31.5072 12.0602 31.3531 9.13235 30.2744C8.05366 29.9662 7.12907 29.3498 6.20448 28.8875C9.28645 29.0416 12.0602 28.4252 14.5258 26.4219C13.293 26.4219 12.2143 25.9596 11.2897 25.3432C10.3651 24.5727 9.59464 23.6482 9.28645 22.5695C10.0569 22.4154 10.9815 22.5695 11.752 22.2613C8.97825 21.4908 7.43727 19.6416 7.28317 16.5596C8.05366 17.0219 8.97825 17.176 9.74874 17.3301C7.28317 15.1727 6.66677 12.7072 8.05366 9.7793C11.1356 13.4777 15.1422 15.4809 19.7651 15.7891C19.7651 15.4809 19.611 15.1727 19.611 14.8645C19.4569 11.9367 21.3061 9.62521 24.0799 9.00881C25.9291 8.54652 27.7783 9.00881 29.1651 10.3957C29.3192 10.5498 29.4733 10.7039 29.7815 10.5498C30.8602 10.2416 31.7848 9.9334 32.7094 9.31701C32.7094 9.31701 32.8635 9.31701 33.0176 9.16291C32.5553 10.5498 31.7848 11.4744 30.7061 12.2449C31.0143 12.2449 31.3225 12.0908 31.7848 12.0908C32.093 11.9367 32.5553 11.9367 32.8635 11.7826C33.1717 11.6285 33.634 11.4744 33.9422 11.3203C33.1717 12.399 32.4012 13.3236 31.3225 14.0941Z" fill="white"/>
</svg>
