<svg width="39" height="40" viewBox="0 0 39 40" fill="none" xmlns="http://www.w3.org/2000/svg">
<path d="M0.466797 19.9498C0.466797 14.8645 0.466797 9.7793 0.466797 4.69406C0.466797 2.84488 1.69958 1.30389 3.39467 0.841598C3.70286 0.6875 4.01106 0.6875 4.47335 0.6875C14.6438 0.6875 24.9684 0.6875 35.1389 0.6875C37.2963 0.6875 38.9914 2.38258 38.9914 4.53996C38.9914 14.7105 38.9914 25.035 38.9914 35.2055C38.9914 37.3629 37.2963 39.058 35.1389 39.058C24.9684 39.058 14.6438 39.058 4.47335 39.058C2.16188 39.2121 0.466797 37.517 0.466797 35.3596C0.466797 30.1203 0.466797 25.035 0.466797 19.9498ZM33.1357 33.3564C33.1357 33.2023 33.1357 33.2023 33.1357 33.0482C33.1357 29.5039 33.1357 25.9596 33.1357 22.4154C33.1357 21.9531 33.1357 21.4908 32.9816 21.0285C32.5193 19.0252 31.4406 17.4842 29.5914 16.4055C27.2799 15.1727 24.9684 15.1727 22.8111 16.8678C22.3488 17.176 21.8865 17.6383 21.4242 18.1006C21.4242 17.3301 21.4242 16.7137 21.4242 15.9432C19.4209 15.9432 17.5717 15.9432 15.7225 15.9432C15.7225 21.6449 15.7225 27.5006 15.7225 33.2023C17.5717 33.2023 19.575 33.2023 21.4242 33.2023C21.4242 33.0482 21.4242 32.8941 21.4242 32.74C21.4242 29.5039 21.4242 26.4219 21.4242 23.1859C21.4242 22.5695 21.5783 21.9531 21.8865 21.4908C22.5029 20.4121 23.8897 19.7957 25.1225 20.258C26.3553 20.7203 27.1258 21.799 27.1258 23.1859C27.1258 26.4219 27.1258 29.5039 27.1258 32.74C27.1258 32.8941 27.1258 33.0482 27.1258 33.2023C29.4373 33.3564 31.2865 33.3564 33.1357 33.3564ZM12.0242 33.3564C12.0242 27.5006 12.0242 21.799 12.0242 16.0973C10.175 16.0973 8.17171 16.0973 6.32253 16.0973C6.32253 21.799 6.32253 27.6547 6.32253 33.3564C8.17171 33.3564 10.0209 33.3564 12.0242 33.3564ZM12.6406 9.31701C12.6406 7.46783 11.0996 5.77275 9.2504 5.77275C7.40122 5.77275 5.70614 7.31373 5.86024 9.16291C5.86024 11.1662 7.40122 12.5531 9.2504 12.7072C11.0996 12.8613 12.6406 11.3203 12.6406 9.31701Z" fill="white"/>
</svg>
