<svg width="25" height="25" viewBox="0 0 25 25" fill="none" xmlns="http://www.w3.org/2000/svg">
<path d="M0 12.5C0 9.2 0 5.9 0 2.6C0 1.4 0.8 0.4 1.9 0.1C2.1 0 2.3 0 2.6 0C9.2 0 15.9 0 22.5 0C23.9 0 25 1.1 25 2.5C25 9.1 25 15.8 25 22.4C25 23.8 23.9 24.9 22.5 24.9C15.9 24.9 9.2 24.9 2.6 24.9C1.1 25 0 23.9 0 22.5C0 19.1 0 15.8 0 12.5ZM21.2 21.2C21.2 21.1 21.2 21.1 21.2 21C21.2 18.7 21.2 16.4 21.2 14.1C21.2 13.8 21.2 13.5 21.1 13.2C20.8 11.9 20.1 10.9 18.9 10.2C17.4 9.4 15.9 9.4 14.5 10.5C14.2 10.7 13.9 11 13.6 11.3C13.6 10.8 13.6 10.4 13.6 9.9C12.3 9.9 11.1 9.9 9.9 9.9C9.9 13.6 9.9 17.4 9.9 21.1C11.1 21.1 12.4 21.1 13.6 21.1C13.6 21 13.6 20.9 13.6 20.8C13.6 18.7 13.6 16.7 13.6 14.6C13.6 14.2 13.7 13.8 13.9 13.5C14.3 12.8 15.2 12.4 16 12.7C16.8 13 17.3 13.7 17.3 14.6C17.3 16.7 17.3 18.7 17.3 20.8C17.3 20.9 17.3 21 17.3 21.1C18.8 21.2 20 21.2 21.2 21.2ZM7.5 21.2C7.5 17.4 7.5 13.7 7.5 10C6.3 10 5 10 3.8 10C3.8 13.7 3.8 17.5 3.8 21.2C5 21.2 6.2 21.2 7.5 21.2ZM7.9 5.6C7.9 4.4 6.9 3.3 5.7 3.3C4.5 3.3 3.4 4.3 3.5 5.5C3.5 6.8 4.5 7.7 5.7 7.8C6.9 7.9 7.9 6.9 7.9 5.6Z" fill="#60269E"/>
</svg>
