<svg width="39" height="40" viewBox="0 0 39 40" fill="none" xmlns="http://www.w3.org/2000/svg">
<path d="M32.4832 18.2804C32.4832 18.5372 32.6116 18.6656 32.6116 18.7941C32.3548 20.4635 32.2264 22.1329 31.9695 23.8023C31.9695 24.0591 31.5843 24.3159 31.3274 24.3159C30.1717 24.3159 29.016 24.3159 27.8602 24.3159C27.2182 24.3159 26.9613 24.4443 26.9613 25.2148C26.9613 29.5809 26.9613 33.9471 26.9613 38.3132C26.9613 39.0837 27.2182 39.2121 27.8602 39.2121C30.557 39.2121 33.3821 39.2121 36.0788 39.2121C38.005 39.2121 38.7755 38.4416 38.7755 36.5154C38.7755 25.8569 38.7755 15.1984 38.7755 4.53996C38.7755 4.0263 38.7755 3.38422 38.7755 2.87056C38.6471 1.58641 37.8766 0.815915 36.5925 0.6875C35.822 0.6875 35.0515 0.6875 34.1526 0.6875C23.6225 0.6875 13.0925 0.6875 2.69083 0.6875C1.14985 0.6875 0.250943 1.45799 0.250943 3.12739C0.250943 14.2995 0.250943 25.6001 0.250943 36.7722C0.250943 38.4416 1.02144 39.2121 2.69083 39.2121C8.34111 39.2121 13.9914 39.2121 19.6417 39.2121C20.0269 39.2121 20.2837 39.2121 20.669 39.0837C20.669 34.0755 20.669 29.3241 20.669 24.3159C18.9996 24.3159 17.3302 24.3159 15.6608 24.3159C15.6608 22.5181 15.6608 20.8487 15.6608 19.1793C15.6608 18.4088 15.9176 18.2804 16.6881 18.2804C17.9723 18.2804 19.3848 18.2804 20.7974 18.2804C20.7974 16.611 20.7974 15.1984 20.7974 13.6574C20.7974 10.3186 22.5952 7.75034 25.5488 6.72302C27.8602 5.95253 30.1717 6.33777 32.6116 6.46619C32.74 6.46619 32.9968 6.85143 32.9968 7.10826C32.9968 8.39242 32.9968 9.80499 32.9968 11.0891C32.9968 11.7312 32.74 11.8596 32.2264 11.8596C31.3274 11.8596 30.3001 11.8596 29.4012 11.8596C27.9887 11.8596 27.2182 12.5017 27.0897 13.9143C26.9613 15.07 27.0897 16.0973 26.9613 17.2531C26.9613 18.0236 27.2182 18.2804 27.9887 18.2804C29.2728 18.152 30.8138 18.2804 32.4832 18.2804Z" fill="white"/>
<path d="M32.4832 18.2804C30.9422 18.2804 29.4012 18.2804 27.8603 18.2804C27.0898 18.2804 26.8329 18.0236 26.8329 17.2531C26.9614 16.0973 26.8329 15.07 26.9614 13.9143C27.0898 12.5017 27.7319 11.8596 29.2728 11.8596C30.1717 11.8596 31.1991 11.8596 32.098 11.8596C32.6116 11.8596 32.8685 11.7312 32.8685 11.0891C32.8685 9.80499 32.8685 8.39242 32.8685 7.10826C32.8685 6.85143 32.6116 6.46619 32.4832 6.46619C30.1717 6.20936 27.7319 5.95253 25.4204 6.72302C22.4668 7.62193 20.669 10.3186 20.669 13.6574C20.669 15.1984 20.669 16.611 20.669 18.2804C19.2564 18.2804 17.9723 18.2804 16.5597 18.2804C15.7892 18.2804 15.5324 18.5372 15.5324 19.1793C15.5324 20.8487 15.5324 22.5181 15.5324 24.3159C17.2018 24.3159 18.8712 24.3159 20.5406 24.3159C20.5406 29.3241 20.5406 34.0755 20.5406 39.0837C20.1553 39.0837 19.7701 39.2121 19.5133 39.2121C13.863 39.2121 8.21272 39.2121 2.56245 39.2121C1.02147 39.2121 0.122559 38.4416 0.122559 36.7722C0.122559 25.6001 0.122559 14.2995 0.122559 3.12739C0.122559 1.58641 0.893052 0.6875 2.56245 0.6875C13.0925 0.6875 23.6226 0.6875 34.0242 0.6875C34.7947 0.6875 35.5652 0.6875 36.4641 0.6875C37.7482 0.6875 38.5187 1.58641 38.6471 2.87056C38.6471 3.38422 38.6471 4.0263 38.6471 4.53996C38.6471 15.1984 38.6471 25.8569 38.6471 36.5154C38.6471 38.4416 37.8767 39.2121 35.9504 39.2121C33.2537 39.2121 30.4286 39.2121 27.7318 39.2121C26.9614 39.2121 26.8329 38.9553 26.8329 38.3132C26.8329 33.9471 26.8329 29.5809 26.8329 25.2148C26.8329 24.4443 27.0898 24.3159 27.7318 24.3159C28.8876 24.3159 30.0433 24.3159 31.1991 24.3159C31.4559 24.3159 31.8411 24.0591 31.8411 23.8023C32.098 22.1329 32.2264 20.4635 32.4832 18.7941C32.4832 18.5372 32.4832 18.5372 32.4832 18.2804Z" fill="white"/>
</svg>
