<svg width="25" height="25" viewBox="0 0 25 25" fill="none" xmlns="http://www.w3.org/2000/svg">
<path d="M22.4 0C15.8 0 9.2 0 2.6 0C2.3 0 2.1 0 1.9 0.1C0.8 0.3 0 1.4 0 2.5C0 5.8 0 9.1 0 12.4C0 15.7 0 19.1 0 22.4C0 23.9 1.1 25 2.5 25C9.1 25 15.8 25 22.4 25C23.8 25 24.9 23.9 24.9 22.5C24.9 15.9 24.9 9.2 24.9 2.6C25 1.1 23.9 0 22.4 0ZM19.8 8.7C19.7 8.8 19.6 8.9 19.6 9.1C19.6 12.7 18.2 15.6 15.4 17.8C14.1 18.8 12.7 19.4 11.1 19.7C9.2 20 7.3 19.9 5.4 19.2C4.7 19 4.1 18.6 3.5 18.3C5.5 18.4 7.3 18 8.9 16.7C8.1 16.7 7.4 16.4 6.8 16C6.2 15.5 5.7 14.9 5.5 14.2C6 14.1 6.6 14.2 7.1 14C5.3 13.5 4.3 12.3 4.2 10.3C4.7 10.6 5.3 10.7 5.8 10.8C4.2 9.4 3.8 7.8 4.7 5.9C6.7 8.3 9.3 9.6 12.3 9.8C12.3 9.6 12.2 9.4 12.2 9.2C12.1 7.3 13.3 5.8 15.1 5.4C16.3 5.1 17.5 5.4 18.4 6.3C18.5 6.4 18.6 6.5 18.8 6.4C19.5 6.2 20.1 6 20.7 5.6C20.7 5.6 20.8 5.6 20.9 5.5C20.6 6.4 20.1 7 19.4 7.5C19.6 7.5 19.8 7.4 20.1 7.4C20.3 7.3 20.6 7.3 20.8 7.2C21 7.1 21.3 7 21.5 6.9C21 7.6 20.5 8.2 19.8 8.7Z" fill="#60269E"/>
</svg>
