<svg width="25" height="25" viewBox="0 0 25 25" fill="none" xmlns="http://www.w3.org/2000/svg">
<path d="M12.5 17.9167C9.50001 17.9167 7.08334 15.5 7.08334 12.5C7.08334 9.49999 9.50001 7.08332 12.5 7.08332C15.5 7.08332 17.9167 9.49999 17.9167 12.5C17.9167 15.5 15.5 17.9167 12.5 17.9167Z" fill="#60269E"/>
<path d="M19.5833 0H5.41667C2.41667 0 0 2.41667 0 5.41667V19.5833C0 22.5833 2.41667 25 5.41667 25H19.5833C22.5833 25 25 22.5833 25 19.5833V5.41667C25 2.41667 22.5833 0 19.5833 0ZM12.5 19.5833C8.58333 19.5833 5.41667 16.4167 5.41667 12.5C5.41667 8.58333 8.58333 5.41667 12.5 5.41667C16.4167 5.41667 19.5833 8.58333 19.5833 12.5C19.5833 16.4167 16.4167 19.5833 12.5 19.5833ZM20.0833 6.08333C19.1667 6.08333 18.5 5.33333 18.5 4.5C18.5 3.58333 19.25 2.91667 20.0833 2.91667C21 2.91667 21.6667 3.66667 21.6667 4.5C21.6667 5.41667 21 6.08333 20.0833 6.08333Z" fill="#60269E"/>
</svg>
