<svg width="60" height="59" viewBox="0 0 60 59" fill="none" xmlns="http://www.w3.org/2000/svg">
<path d="M19.5789 4.15792C10.7368 1.6316 5.05263 7.94739 2.84211 13C1.01053 17.0421 0 21.5263 0 26.2632C0 44.0737 14.4 58.4737 32.2105 58.4737C39.9789 58.4737 48 54.6842 54.9474 48.3684C12.6316 41.4211 37.8947 12.3684 19.5789 4.15792Z" fill="#8D48E6"/>
<path opacity="0.5" d="M19.5789 4.15792C10.7368 1.6316 5.05263 7.94739 2.84211 13C1.01053 17.0421 0 21.5263 0 26.2632C0 44.0737 14.4 58.4737 32.2105 58.4737C39.9789 58.4737 56.2105 52.7895 60 39.5263C25.8947 39.5263 42.3158 14.2632 19.5789 4.15792Z" fill="#9453E8"/>
<path d="M57.9159 22.3474L52.4212 28.2211V18.4316C52.4212 5.80002 42.1896 2.01055 38.2107 1.00002C37.3896 0.810547 36.5686 1.37897 36.4422 2.20002C36.3791 2.95791 36.8212 3.58949 37.5791 3.77897C40.9265 4.53686 49.5791 7.6316 49.5791 18.3684V28.1579L44.0844 22.2842C43.6423 21.8421 42.9475 21.779 42.4422 22.2211C42.0001 22.6632 41.937 23.3579 42.3791 23.8632L50.1475 32.2C50.5896 32.7053 51.3475 32.7053 51.8528 32.2L59.6212 23.8632C60.0633 23.4211 60.0001 22.6632 59.558 22.2211C59.0528 21.8421 58.358 21.9053 57.9159 22.3474Z" fill="#9453E8"/>
</svg>
