<svg width="307" height="203" viewBox="0 0 307 203" fill="none" xmlns="http://www.w3.org/2000/svg">
<path d="M65.5354 14.2227L13.3875 26.7721L38.0596 121.52C38.0596 121.52 88.7356 97.3975 115.651 117.407C116.632 118.174 117.753 118.801 118.945 119.429L130.09 20.9854C109.413 11.922 91.6094 12.1311 65.5354 14.2227Z" fill="#349974"/>
<path d="M191.91 27.2602C164.154 31.7919 147.823 30.2581 139.201 25.5172C136.047 23.7742 133.033 22.3101 130.019 20.9855L118.875 119.429C134.716 127.586 165.696 124.518 165.696 124.518C223.661 109.529 276.51 30.8856 276.51 30.8856L263.403 32.0708L288.426 3.62541C288.426 3.55569 250.296 17.7784 191.91 27.2602Z" fill="#3DAE8A"/>
<path d="M58 202.5C56.9486 202.5 55.9674 201.803 55.687 200.757L7.21924 12.4797C6.86878 11.2248 7.63979 9.90013 8.90143 9.62126C10.1631 9.27266 11.4948 10.0396 11.7752 11.2945L60.2429 199.572C60.5934 200.827 59.8224 202.151 58.5607 202.43C58.4205 202.43 58.2103 202.5 58 202.5Z" fill="#3DAE8A"/>
<path d="M7.78014 15.4776C12.077 15.4776 15.5603 12.0128 15.5603 7.73881C15.5603 3.46479 12.077 0 7.78014 0C3.48329 0 0 3.46479 0 7.73881C0 12.0128 3.48329 15.4776 7.78014 15.4776Z" fill="#3DAE8A"/>
<path d="M161.07 21.5432C159.177 21.5432 157.285 21.5432 155.392 21.4735C154.762 21.4735 154.201 20.9157 154.271 20.2185C154.271 19.5911 154.832 19.103 155.463 19.103C155.463 19.103 155.462 19.103 155.533 19.103C182.728 20.0791 209.853 13.9438 233.965 1.46411C234.525 1.18524 235.297 1.39439 235.577 1.95215C235.857 2.5099 235.647 3.27681 235.086 3.55568C212.236 15.3382 186.723 21.5432 161.07 21.5432Z" fill="#3DAE8A"/>
<path d="M128.127 140.414C115.791 140.414 103.525 137.347 92.7307 131.49C92.17 131.142 91.9597 130.444 92.2401 129.887C92.5906 129.329 93.2915 129.12 93.8522 129.399C106.749 136.37 121.889 139.299 136.538 137.556C137.169 137.486 137.799 137.974 137.87 138.601C137.94 139.229 137.449 139.856 136.818 139.926C133.874 140.205 131.001 140.414 128.127 140.414Z" fill="#3DAE8A"/>
<path d="M280.085 74.5297C279.805 74.5297 279.454 74.3903 279.244 74.1811C278.753 73.6931 278.753 72.9959 279.244 72.5078C289.267 62.3289 297.888 50.7555 304.757 38.2758C305.108 37.718 305.808 37.5089 306.369 37.7878C306.93 38.1363 307.14 38.8335 306.86 39.3913C299.851 52.0802 291.159 63.793 280.926 74.1811C280.716 74.46 280.435 74.5297 280.085 74.5297Z" fill="#3DAE8A"/>
<path d="M62.2411 94.1208C61.7505 93.563 61.4701 92.6567 61.2598 91.4017C61.0496 90.3559 60.8393 89.2404 60.629 88.1249C60.4187 87.0094 60.1384 85.8939 59.9281 84.8481C59.6477 83.7326 59.4375 82.6171 59.1571 81.5713C58.8767 80.5256 58.5964 79.41 58.3861 78.2945C58.1057 77.179 57.8254 76.1333 57.6151 75.0875C57.3347 74.0417 57.0544 72.9262 56.774 71.8804C56.4936 70.8346 56.2133 69.7888 56.003 68.6733C55.7226 67.6275 55.4423 66.5817 55.232 65.4662C54.9516 64.4205 54.7413 63.305 54.461 62.2592C54.1806 61.2134 53.9703 60.0979 53.69 59.0521C53.4096 57.9366 53.1993 56.8908 52.9891 55.7753C52.7788 54.6598 52.5685 53.614 52.3582 52.4985C52.148 51.383 52.0078 50.3372 51.7975 49.2914C50.4658 49.7097 49.5546 49.9886 48.5733 50.3372C47.6621 50.6858 46.6808 51.0344 45.4893 51.4527C44.8585 51.7316 44.2977 51.6619 43.8772 51.2436C43.4566 50.8252 43.2464 50.128 43.1763 49.2217C43.1062 48.3154 43.3165 47.6182 43.6669 47.0604C44.0174 46.5027 44.508 46.1541 45.1388 45.8752C46.1902 45.4569 47.2416 45.0386 48.1528 44.69C49.134 44.3414 50.0452 44.0625 50.9564 43.7836C51.8676 43.5047 52.7788 43.2259 53.6199 42.947C54.5311 42.6681 55.4423 42.459 56.3534 42.1801C57.3347 41.9709 58.316 41.692 59.3674 41.4829C60.4187 41.2737 61.6103 40.9949 62.8719 40.716C63.6429 40.5765 64.2738 40.6463 64.6242 40.9949C65.0448 41.3435 65.255 41.9012 65.255 42.8773C65.3251 43.8533 65.1849 44.69 64.8345 45.3174C64.484 45.9449 63.9233 46.3632 63.1523 46.5027C62.2411 46.7118 61.4 46.8513 60.6991 46.9907C59.9982 47.1301 59.2973 47.2696 58.5964 47.4787C57.8954 47.6879 57.1244 47.8273 56.2133 48.0365C56.3534 49.0823 56.5637 50.1978 56.7039 51.3133C56.8441 52.4288 57.1244 53.5443 57.3347 54.6598C57.545 55.7753 57.7553 56.8908 58.0356 58.0063C58.2459 59.1218 58.5263 60.2373 58.7365 61.2831C59.0169 62.3986 59.2272 63.4444 59.5075 64.5599C59.7879 65.6754 59.9982 66.7212 60.2786 67.8367C60.5589 68.8825 60.7692 69.998 61.0496 71.0438C61.3299 72.0895 61.5402 73.2051 61.8206 74.3206C62.1009 75.4361 62.3112 76.4818 62.5916 77.5974C62.8719 78.7129 63.0822 79.8284 63.3626 80.8741C63.6429 81.9897 63.8532 83.1052 64.0635 84.2207C64.2738 85.3362 64.5541 86.4517 64.7644 87.5672C64.9747 88.6827 65.1849 89.7285 65.3251 90.844C65.5354 92.0989 65.4653 93.0053 65.1849 93.7024C64.9046 94.3996 64.4139 94.818 63.7831 94.8877C63.2925 94.8877 62.7318 94.7482 62.2411 94.1208Z" fill="white"/>
<path d="M92.8009 38.5547C93.2215 39.1124 93.4317 39.8793 93.4317 40.9948C93.4317 41.9012 93.4317 42.8772 93.4317 43.923C93.4317 44.9688 93.5018 46.0146 93.5719 47.0604C93.642 48.1759 93.642 49.2217 93.7121 50.3372C93.7822 51.4527 93.8523 52.5682 93.9224 53.7534C93.9925 54.9386 94.0626 56.0541 94.1327 57.1696C94.2028 58.2851 94.2728 59.4704 94.413 60.5859C94.5532 61.7014 94.5532 62.8866 94.6934 64.0021C94.7635 65.1176 94.9037 66.3028 94.9738 67.4183C95.0438 68.6036 95.184 69.7191 95.2541 70.9043C95.3242 72.0895 95.4644 73.205 95.5345 74.3902C95.6046 75.5755 95.7448 76.691 95.8148 77.8762C95.8849 79.0614 95.955 80.1769 96.0952 81.3621C96.1653 82.4777 96.2354 83.6629 96.3055 84.7784C96.3756 85.8939 96.4457 87.0094 96.5158 88.0552C96.5859 89.101 96.6559 90.1468 96.6559 91.1228C96.726 92.308 96.5158 93.1447 96.1653 93.7024C95.8148 94.2602 95.2541 94.4693 94.6934 94.3996C94.0626 94.3299 93.5719 94.051 93.1514 93.3538C92.8009 92.7264 92.5206 91.82 92.4505 90.6348C92.3804 89.589 92.3103 88.5432 92.2402 87.4974C92.1701 86.4516 92.1 85.4756 91.9598 84.4298C91.8897 83.384 91.7496 82.4079 91.6795 81.2924C91.6094 80.1769 91.4692 79.1311 91.3991 78.0156C91.2589 76.8304 91.1888 75.6452 91.0486 74.3205C90.9085 72.9959 90.7683 71.5318 90.6281 69.9979C89.2964 69.9282 88.1749 69.8585 87.0534 69.8585C86.0021 69.7888 84.9507 69.7888 83.9694 69.7888C82.9881 69.7888 82.0069 69.7888 80.8854 69.7888C79.834 69.7888 78.6425 69.7888 77.3107 69.8585C77.5911 71.3923 77.8014 72.717 78.0117 74.0416C78.2219 75.3663 78.4322 76.4818 78.5724 77.5973C78.7827 78.7128 78.9228 79.7586 79.063 80.8044C79.2032 81.8502 79.3434 82.8263 79.5537 83.872C79.6938 84.8481 79.834 85.8939 79.9742 86.87C80.1144 87.846 80.2546 88.9615 80.3948 90.0073C80.5349 91.2623 80.3948 92.0989 80.1144 92.7264C79.7639 93.3538 79.2733 93.6327 78.6425 93.6327C78.0117 93.6327 77.521 93.3538 77.1005 92.7264C76.6799 92.0989 76.3995 91.1925 76.1893 90.0073C76.0491 88.9615 75.9089 87.846 75.6986 86.7305C75.4884 85.615 75.3482 84.4298 75.1379 83.3143C74.9276 82.1291 74.7174 81.0136 74.5071 79.8283C74.2968 78.6431 74.0865 77.5276 73.8763 76.3424C73.666 75.1572 73.4557 74.0417 73.2454 72.8564C73.0352 71.6712 72.8249 70.5557 72.6146 69.4402C72.4043 68.3247 72.1941 67.1395 71.9838 66.024C71.7735 64.9085 71.5633 63.7232 71.353 62.6077C71.1427 61.4922 70.9324 60.3767 70.7222 59.1915C70.5119 58.0063 70.3016 56.9605 70.1614 55.845C70.0212 54.7295 69.811 53.614 69.6007 52.4985C69.4605 51.383 69.2502 50.2675 69.1101 49.2217C68.9699 48.1759 68.8297 47.0604 68.6895 46.0146C68.5493 44.9688 68.4792 43.9927 68.4091 43.0167C68.339 41.9012 68.5493 41.1343 69.04 40.5765C69.5306 39.949 70.1614 39.6702 70.9324 39.5307C71.7034 39.3913 72.3343 39.6004 72.8249 40.0188C73.3155 40.5068 73.5258 41.204 73.5959 42.3195C73.666 43.2258 73.7361 44.1322 73.8062 45.0385C73.8763 45.9449 73.9464 46.8512 74.0865 47.6879C74.1566 48.5942 74.2968 49.5006 74.437 50.4069C74.5772 51.3132 74.7174 52.2893 74.8575 53.3351C74.9977 54.3809 75.1379 55.4267 75.3482 56.6119C75.4884 57.7971 75.6986 59.0521 75.9089 60.5162C77.3107 60.4464 78.5023 60.3767 79.6238 60.307C80.7452 60.2373 81.7966 60.2373 82.848 60.2373C83.8993 60.2373 84.9507 60.2373 86.0722 60.2373C87.1936 60.2373 88.3852 60.2373 89.787 60.307C89.6468 58.8429 89.5066 57.4485 89.4365 56.2633C89.2964 55.0084 89.2263 53.8929 89.1562 52.8471C89.0861 51.8013 89.016 50.7555 88.9459 49.7794C88.8758 48.8034 88.8057 47.897 88.7356 46.9209C88.6655 45.9449 88.6655 45.0385 88.5954 44.1322C88.5254 43.2258 88.5254 42.2498 88.5254 41.3434C88.5254 40.2279 88.8057 39.461 89.2964 38.9033C89.787 38.3455 90.4178 38.1363 91.2589 38.1363C91.7496 37.7878 92.3804 38.0666 92.8009 38.5547Z" fill="white"/>
<path d="M122.52 95.5151C122.52 96.3518 122.309 96.9095 121.889 97.3278C121.468 97.7461 121.048 97.8159 120.487 97.7461C120.137 97.6764 119.856 97.537 119.506 97.3278C119.225 97.049 119.015 96.6306 118.805 96.0729C118.595 95.1665 118.384 94.2602 118.174 93.2841C117.964 92.3778 117.824 91.4017 117.613 90.3559C117.403 89.3101 117.193 88.0552 116.912 86.5214C115.791 86.3122 114.74 86.1728 113.828 85.9636C112.917 85.7545 112.006 85.615 111.165 85.4756C110.324 85.3362 109.413 85.1967 108.431 85.0573C107.45 84.9178 106.469 84.7087 105.277 84.5692C105.067 86.0333 104.857 87.2186 104.716 88.1946C104.506 89.2404 104.366 90.077 104.156 90.9834C103.946 91.8897 103.735 92.7961 103.455 93.7024C103.245 94.3299 103.034 94.6785 102.684 94.9574C102.403 95.1665 102.053 95.2363 101.632 95.2363C101.142 95.1665 100.651 94.8877 100.301 94.3299C99.8802 93.7722 99.6699 93.0053 99.6699 92.0989C99.6699 91.6109 99.74 91.0531 99.8101 90.4954C100.02 89.4496 100.231 88.4038 100.371 87.2883C100.581 86.1728 100.721 85.0573 100.861 83.8721C101.002 82.6868 101.212 81.5713 101.352 80.3861C101.492 79.2009 101.632 78.0156 101.773 76.8304C101.913 75.6452 102.053 74.46 102.193 73.2748C102.333 72.0895 102.474 70.9043 102.614 69.7191C102.754 68.5339 102.894 67.3486 103.034 66.2331C103.174 65.0479 103.315 63.9324 103.455 62.7472C103.595 61.562 103.735 60.4464 103.945 59.2612C104.086 58.076 104.296 56.9605 104.436 55.845C104.576 54.7295 104.787 53.5443 104.997 52.4288C105.207 51.3133 105.417 50.1978 105.628 49.0822C105.838 47.9667 106.048 46.921 106.329 45.8752C106.539 44.8294 106.819 43.8533 107.1 42.8773C107.38 41.9012 107.66 41.0646 107.941 40.2279C108.221 39.5307 108.572 39.1124 109.062 38.9033C109.553 38.6244 110.043 38.5547 110.534 38.6244C111.025 38.6941 111.515 38.8335 111.936 39.1821C112.356 39.5307 112.637 40.0188 112.847 40.716C113.057 41.4829 113.268 42.3892 113.478 43.2956C113.688 44.2019 113.898 45.178 114.109 46.2238C114.319 47.2696 114.529 48.3153 114.74 49.3611C114.95 50.4069 115.16 51.5224 115.37 52.6379C115.581 53.7534 115.791 54.8689 115.931 55.9844C116.071 57.0999 116.282 58.2852 116.492 59.4007C116.702 60.5162 116.842 61.7014 117.053 62.8866C117.263 64.0718 117.403 65.1873 117.613 66.3726C117.824 67.5578 117.964 68.743 118.174 69.9282C118.384 71.1135 118.524 72.2987 118.735 73.4839C118.945 74.6691 119.085 75.8544 119.296 77.0396C119.506 78.2248 119.646 79.41 119.856 80.5953C120.067 81.7805 120.207 82.9657 120.417 84.1509C120.627 85.3362 120.838 86.4517 120.978 87.6369C121.188 88.7524 121.398 89.8679 121.609 90.9834C121.819 92.0292 122.029 93.075 122.239 94.051C122.52 94.5391 122.59 95.0271 122.52 95.5151ZM115.511 76.9699C115.3 75.6452 115.09 74.3205 114.88 73.1353C114.669 71.8804 114.529 70.6952 114.319 69.5796C114.109 68.4641 113.969 67.3486 113.758 66.2331C113.618 65.1873 113.408 64.1416 113.268 63.0958C113.127 62.05 112.917 61.0739 112.777 60.0281C112.637 59.0521 112.427 58.0063 112.286 57.0302C112.146 56.0542 111.936 55.0084 111.726 53.9626C111.515 52.9168 111.375 51.871 111.165 50.8252C110.955 49.7794 110.744 48.7337 110.534 47.6181C110.324 48.6639 110.114 49.7097 109.973 50.6858C109.833 51.6618 109.623 52.7076 109.483 53.6837C109.343 54.6598 109.202 55.6358 109.062 56.6119C108.922 57.588 108.782 58.564 108.642 59.4704C108.501 60.4465 108.361 61.4225 108.221 62.3986C108.081 63.3746 107.941 64.3507 107.801 65.3965C107.66 66.4423 107.52 67.4881 107.38 68.5339C107.24 69.6494 107.1 70.7649 106.959 71.8804C106.819 72.9959 106.679 74.2508 106.539 75.5058C107.73 75.6452 108.782 75.8544 109.693 75.9938C110.604 76.1332 111.515 76.2727 112.427 76.4121C113.408 76.6213 114.389 76.7607 115.511 76.9699Z" fill="white"/>
<path d="M140.113 45.3175C140.393 45.8752 140.463 46.6421 140.463 47.7576C140.463 48.664 140.463 49.64 140.463 50.6858C140.463 51.7316 140.463 52.7774 140.463 53.8929C140.463 55.0084 140.463 56.1239 140.463 57.3091C140.463 58.4944 140.463 59.6099 140.463 60.7951C140.463 61.9803 140.463 63.1655 140.463 64.3508C140.463 65.536 140.463 66.7212 140.463 67.9064C140.463 69.0916 140.463 70.2769 140.463 71.4621C140.463 72.6473 140.463 73.8325 140.463 75.0178C140.463 76.203 140.463 77.3882 140.463 78.5734C140.463 79.7587 140.463 80.9439 140.463 82.1291C140.463 83.3143 140.463 84.4996 140.463 85.6848C140.463 86.87 140.463 88.0552 140.463 89.1707C140.463 90.356 140.463 91.4715 140.463 92.587C140.463 93.7025 140.463 94.7482 140.463 95.794C140.463 96.8398 140.463 97.8159 140.463 98.7222C140.463 99.8377 140.323 100.535 140.042 101.023C139.762 101.441 139.482 101.581 139.061 101.511C138.57 101.372 138.22 101.023 137.94 100.326C137.659 99.6286 137.449 98.792 137.239 97.9553C137.028 97.1187 136.748 96.2123 136.538 95.306C136.328 94.3997 136.117 93.4236 135.837 92.4475C135.557 91.4715 135.416 90.4257 135.206 89.4496C134.996 88.4038 134.786 87.358 134.575 86.3122C134.365 85.2665 134.155 84.151 133.944 83.1052C133.734 82.0594 133.524 80.8742 133.314 79.7587C133.103 78.6432 132.893 77.4579 132.683 76.2727C132.473 75.0875 132.262 73.9023 131.982 72.6473C131.702 71.3924 131.491 70.1374 131.281 68.8825C131.001 67.6276 130.79 66.3029 130.51 64.9782C130.23 63.6536 129.949 62.2592 129.669 60.8648C129.389 59.4704 129.108 58.076 128.758 56.6817C128.758 58.0063 128.758 59.331 128.758 60.6556C128.758 61.9803 128.758 63.2352 128.758 64.4902C128.758 65.7451 128.758 66.9304 128.758 68.1853C128.758 69.4402 128.758 70.5557 128.758 71.6713C128.758 72.7868 128.758 73.972 128.758 75.0178C128.758 76.1333 128.758 77.1791 128.758 78.2946C128.758 79.3403 128.758 80.4559 128.758 81.5016C128.758 82.5474 128.758 83.5932 128.758 84.639C128.758 85.6848 128.758 86.6608 128.758 87.7066C128.758 88.6827 128.758 89.7285 128.758 90.7046C128.758 91.6806 128.758 92.6567 128.758 93.563C128.758 94.4694 128.758 95.3757 128.758 96.2124C128.758 97.3279 128.618 98.025 128.267 98.5131C127.987 98.9314 127.566 99.0708 127.005 99.0011C126.515 98.9314 126.094 98.6525 125.744 98.0948C125.463 97.537 125.323 96.7701 125.323 95.6546C125.323 94.7482 125.323 93.7722 125.323 92.7264C125.323 91.6806 125.323 90.6348 125.323 89.5193C125.323 88.4038 125.323 87.2883 125.323 86.1031C125.323 84.9179 125.323 83.7326 125.323 82.5474C125.323 81.3622 125.323 80.177 125.323 78.9918C125.323 77.8065 125.323 76.6213 125.323 75.3664C125.323 74.1811 125.323 72.9262 125.323 71.741C125.323 70.5557 125.323 69.3008 125.323 68.1156C125.323 66.9304 125.323 65.6754 125.323 64.4902C125.323 63.305 125.323 62.05 125.323 60.8648C125.323 59.6796 125.323 58.4944 125.323 57.3091C125.323 56.1239 125.323 54.9387 125.323 53.7535C125.323 52.5682 125.323 51.4527 125.323 50.3372C125.323 49.2217 125.323 48.1062 125.323 47.1301C125.323 46.0844 125.323 45.1083 125.323 44.202C125.323 43.0864 125.534 42.3893 125.814 41.9709C126.164 41.5526 126.585 41.4132 127.076 41.5526C127.636 41.6921 128.057 42.0407 128.407 42.8076C128.688 43.5048 128.968 44.3414 129.248 45.178C129.529 46.0146 129.809 46.921 130.019 47.8971C130.3 48.8034 130.51 49.7795 130.79 50.8253C131.071 51.871 131.281 52.8471 131.491 53.8929C131.702 54.9387 131.982 55.9845 132.192 57.0303C132.402 58.076 132.613 59.1915 132.823 60.2373C133.033 61.3528 133.244 62.4683 133.454 63.5838C133.664 64.6993 133.874 65.8846 134.085 67.0001C134.295 68.1156 134.505 69.3705 134.715 70.5557C134.926 71.741 135.136 72.9959 135.416 74.3206C135.627 75.5755 135.907 76.9002 136.117 78.2248C136.328 79.5495 136.608 80.8742 136.818 82.2685C137.099 83.6629 137.309 85.0573 137.589 86.4517C137.589 85.127 137.589 83.8024 137.589 82.5474C137.589 81.2925 137.589 79.9678 137.589 78.7826C137.589 77.5974 137.589 76.3424 137.589 75.1572C137.589 73.972 137.589 72.7868 137.589 71.6713C137.589 70.5557 137.589 69.4402 137.589 68.3247C137.589 67.2092 137.589 66.1634 137.589 65.1177C137.589 64.0719 137.589 63.0261 137.589 61.9803C137.589 60.9345 137.589 59.8887 137.589 58.9127C137.589 57.8669 137.589 56.8908 137.589 55.845C137.589 54.7992 137.589 53.8232 137.589 52.8471C137.589 51.871 137.589 50.895 137.589 49.9886C137.589 49.0823 137.589 48.1759 137.589 47.3393C137.589 46.2238 137.729 45.5266 138.01 45.1083C138.29 44.69 138.641 44.5505 139.061 44.69C139.482 44.4808 139.832 44.7597 140.113 45.3175Z" fill="white"/>
<path d="M156.304 101.65C156.304 102.487 156.163 103.114 155.883 103.602C155.603 104.091 155.252 104.3 154.902 104.23C154.481 104.23 154.131 103.951 153.85 103.324C153.5 102.626 153.15 101.79 152.799 100.953C152.449 100.117 152.168 99.2799 151.888 98.3736C151.608 97.4672 151.327 96.5609 151.047 95.5848C150.766 94.6087 150.486 93.6327 150.276 92.5869C149.995 91.5411 149.715 90.4953 149.505 89.3798C149.224 88.2643 148.944 87.0791 148.664 85.8241C148.383 84.5692 148.103 83.2445 147.753 81.7804C147.472 80.3163 147.122 78.8522 146.771 77.179C146.771 78.7128 146.771 80.1769 146.701 81.5016C146.631 82.8262 146.701 84.0812 146.631 85.2664C146.561 86.4516 146.631 87.4974 146.631 88.6129C146.631 89.6587 146.631 90.7045 146.631 91.6805C146.631 92.6566 146.631 93.6327 146.631 94.6087C146.631 95.5848 146.631 96.4912 146.631 97.4672C146.631 98.3736 146.631 99.3496 146.631 100.256C146.631 101.371 146.491 102.069 146.211 102.557C145.93 103.045 145.58 103.184 145.159 103.045C144.739 102.975 144.388 102.696 144.178 102.138C143.897 101.581 143.827 100.814 143.827 99.6982C143.827 98.7919 143.827 97.8158 143.827 96.77C143.827 95.7242 143.827 94.6785 143.827 93.563C143.827 92.4474 143.827 91.332 143.827 90.1467C143.827 89.0312 143.827 87.846 143.827 86.6608C143.827 85.4756 143.827 84.2903 143.827 83.1051C143.827 81.9199 143.827 80.7347 143.827 79.5494C143.827 78.3642 143.827 77.179 143.827 75.9938C143.827 74.8085 143.827 73.6233 143.827 72.4381C143.827 71.2529 143.827 70.0676 143.827 68.8824C143.827 67.6972 143.827 66.512 143.827 65.3268C143.827 64.1415 143.827 62.9563 143.827 61.7711C143.827 60.5859 143.827 59.4704 143.827 58.2851C143.827 57.0999 143.827 55.9844 143.827 54.8689C143.827 53.7534 143.827 52.7076 143.827 51.6618C143.827 50.616 143.827 49.64 143.827 48.7336C143.827 47.6181 143.968 46.9209 144.248 46.5026C144.528 46.0843 144.879 45.9449 145.299 46.0843C145.79 46.2237 146.14 46.5026 146.351 47.0604C146.631 47.6181 146.771 48.385 146.701 49.5005C146.701 50.3372 146.701 51.2435 146.701 52.1499C146.701 53.0562 146.701 53.9626 146.701 54.8689C146.701 55.7752 146.701 56.6816 146.701 57.5879C146.701 58.4943 146.701 59.4704 146.701 60.4464C146.701 61.4225 146.701 62.4683 146.701 63.5838C146.701 64.6993 146.701 65.8148 146.631 67.0697C146.631 68.3247 146.631 69.6493 146.561 71.1134C146.982 69.5099 147.402 67.9761 147.753 66.6514C148.103 65.3268 148.524 64.0021 148.874 62.8169C149.224 61.6316 149.575 60.5161 149.925 59.4704C150.276 58.4246 150.626 57.4485 150.907 56.4724C151.257 55.4964 151.608 54.59 151.958 53.7534C152.308 52.9168 152.659 52.0801 153.079 51.2435C153.5 50.4766 153.921 49.7097 154.341 49.0822C154.621 48.6639 154.972 48.5245 155.322 48.5942C155.673 48.6639 156.023 48.9428 156.304 49.5703C156.584 50.128 156.724 50.8252 156.724 51.6618C156.724 52.4985 156.514 53.3351 156.163 54.102C155.743 54.9386 155.392 55.7752 155.042 56.6816C154.692 57.5879 154.411 58.4246 154.061 59.2612C153.78 60.0978 153.43 61.0042 153.15 61.8408C152.869 62.6774 152.589 63.5838 152.308 64.5598C152.028 65.4662 151.748 66.4423 151.397 67.4183C151.117 68.4641 150.766 69.5099 150.486 70.6254C150.136 71.7409 149.785 72.9958 149.435 74.3205C149.715 75.7149 149.995 77.0395 150.276 78.2248C150.556 79.4797 150.766 80.5952 151.047 81.7107C151.327 82.8262 151.537 83.872 151.748 84.8481C151.958 85.8241 152.238 86.8002 152.449 87.7763C152.659 88.7523 152.939 89.6587 153.15 90.565C153.36 91.4714 153.64 92.3777 153.85 93.2841C154.131 94.1904 154.341 95.0968 154.621 96.0031C154.902 96.9095 155.182 97.8158 155.533 98.7222C156.163 99.8377 156.304 100.744 156.304 101.65Z" fill="white"/>
<path d="M181.677 53.6837C182.167 53.6837 182.588 53.8928 183.008 54.3111C183.429 54.7295 183.639 55.2872 183.639 56.0541C183.639 56.6816 183.499 57.3091 183.219 57.9365C182.798 58.7732 182.448 59.6795 182.097 60.5161C181.747 61.3528 181.396 62.2591 181.046 63.0957C180.695 63.9324 180.415 64.8387 180.065 65.7451C179.714 66.6514 179.434 67.5578 179.083 68.5338C178.733 69.5099 178.453 70.486 178.102 71.5317C177.752 72.5775 177.401 73.693 176.981 74.8783C176.56 76.0635 176.21 77.3881 175.719 78.7825C175.649 80.3861 175.649 81.8502 175.579 83.1748C175.579 84.4995 175.509 85.7544 175.509 86.8699C175.509 88.0552 175.439 89.1009 175.439 90.1467C175.439 91.1925 175.439 92.1686 175.369 93.2144C175.369 94.1904 175.369 95.1665 175.369 96.1426C175.369 97.1186 175.369 98.025 175.369 98.9313C175.369 99.9074 175.228 100.605 174.878 101.093C174.527 101.581 174.037 101.929 173.406 102.069C172.775 102.208 172.285 102.208 171.864 101.86C171.443 101.581 171.233 100.953 171.233 99.9074C171.233 99.1405 171.233 98.3039 171.233 97.4672C171.233 96.6306 171.233 95.7243 171.233 94.8876C171.233 93.9813 171.233 93.1447 171.303 92.2383C171.303 91.332 171.373 90.4256 171.373 89.4495C171.373 88.4735 171.443 87.4974 171.443 86.3819C171.443 85.2664 171.514 84.1509 171.514 82.9657C171.514 81.7804 171.584 80.4558 171.584 78.9917C171.233 77.5973 170.883 76.2726 170.532 75.0177C170.182 73.7628 169.901 72.5775 169.621 71.462C169.341 70.3465 169.06 69.231 168.78 68.1852C168.5 67.1395 168.219 66.0937 168.009 65.0479C167.729 64.0021 167.448 63.026 167.168 61.9802C166.887 60.9345 166.607 59.9584 166.327 58.9126C166.046 57.8668 165.696 56.821 165.345 55.7752C165.065 55.0083 164.925 54.2414 164.925 53.5442C164.925 52.7076 165.065 52.1499 165.416 51.7315C165.766 51.3132 166.116 51.2435 166.537 51.3132C167.028 51.3829 167.448 51.7315 167.799 52.359C168.219 53.1259 168.57 53.8928 168.92 54.7295C169.271 55.5661 169.621 56.4027 169.901 57.3091C170.182 58.2154 170.532 59.052 170.813 60.0281C171.093 60.9345 171.443 61.9105 171.724 62.9563C172.004 64.0021 172.355 65.1176 172.705 66.3028C173.056 67.488 173.406 68.8824 173.827 70.3465C174.387 68.6733 174.878 67.1394 175.298 65.8845C175.719 64.6296 176.21 63.4443 176.56 62.3288C176.981 61.2831 177.331 60.307 177.752 59.3309C178.172 58.3548 178.523 57.5182 178.943 56.6816C179.364 55.845 179.784 55.0083 180.275 54.3111C180.766 53.8231 181.186 53.6837 181.677 53.6837Z" fill="white"/>
<path d="M189.036 94.3299C188.195 94.1904 187.354 93.8418 186.723 93.0749C186.093 92.308 185.532 91.2622 185.041 89.7284C184.831 88.9615 184.621 88.1249 184.48 87.1488C184.34 86.1727 184.2 85.1269 184.13 84.0114C184.06 82.8959 183.99 81.641 183.92 80.3163C183.92 78.9917 183.92 77.5973 183.92 76.2029C183.92 75.0874 183.99 73.9022 184.06 72.8564C184.13 71.8106 184.2 70.6951 184.27 69.719C184.34 68.743 184.48 67.7669 184.55 66.8606C184.621 65.9542 184.831 65.1176 184.971 64.281C185.111 63.4443 185.251 62.7471 185.462 61.9802C185.742 60.795 186.093 59.8189 186.443 58.9126C186.793 58.0062 187.214 57.3091 187.635 56.6816C188.055 56.0541 188.546 55.5661 189.036 55.1478C189.807 54.5203 190.648 54.102 191.56 53.7534C192.471 53.4048 193.452 53.1956 194.503 53.0562C195.555 52.9167 196.606 52.9168 197.517 52.9865C198.499 53.0562 199.34 53.3351 200.181 53.7534C201.022 54.1717 201.723 54.7992 202.354 55.5661C202.985 56.333 203.545 57.3788 203.966 58.7034C204.246 59.5401 204.527 60.5161 204.737 61.4922C204.947 62.538 205.087 63.6535 205.157 64.8387C205.227 66.0239 205.298 67.3486 205.298 68.743C205.298 69.7888 205.298 70.7648 205.227 71.7409C205.157 72.717 205.087 73.693 205.017 74.5994C204.947 75.5057 204.807 76.4121 204.667 77.2487C204.527 78.0853 204.386 78.922 204.176 79.6889C203.896 80.7346 203.615 81.7107 203.265 82.6171C202.914 83.5234 202.564 84.36 202.143 85.1269C201.723 85.8939 201.232 86.6608 200.742 87.358C200.251 88.0551 199.69 88.6826 199.059 89.2404C198.429 89.7981 197.868 90.3559 197.167 90.9136C196.466 91.4017 195.765 91.8897 194.994 92.3777C193.873 93.0749 192.751 93.5629 191.77 93.9115C190.859 94.3299 189.877 94.4693 189.036 94.3299ZM199.62 82.4776C199.901 81.7107 200.111 80.9438 200.321 80.1072C200.531 79.2705 200.672 78.2945 200.812 77.3184C200.952 76.3423 201.022 75.2966 201.092 74.1811C201.162 73.0656 201.162 71.8803 201.162 70.6254C201.162 69.3704 201.162 68.1852 201.092 67.1394C201.022 66.0936 200.882 65.0479 200.742 64.1415C200.601 63.2352 200.391 62.4683 200.181 61.7711C199.971 61.0739 199.69 60.4464 199.41 59.8887C198.849 58.8429 198.148 58.076 197.307 57.7274C196.536 57.3091 195.625 57.1696 194.574 57.309C193.522 57.4485 192.611 57.8668 191.84 58.4943C191.069 59.1915 190.368 60.1675 189.807 61.5619C189.527 62.2591 189.247 63.0957 189.036 64.0021C188.826 64.9084 188.616 65.9542 188.476 67.0697C188.335 68.1852 188.195 69.4402 188.125 70.8345C188.055 72.1592 187.985 73.6233 187.915 75.2268C187.915 76.7607 187.915 78.2248 187.985 79.5494C188.055 80.8741 188.125 82.0593 188.265 83.1051C188.406 84.1509 188.616 85.0572 188.826 85.8241C189.036 86.591 189.317 87.2185 189.597 87.7763C190.228 88.8221 190.929 89.3101 191.77 89.4495C192.611 89.589 193.592 89.3101 194.644 88.6826C195.345 88.2643 195.975 87.7763 196.606 87.2185C197.167 86.6608 197.728 85.9636 198.218 85.1967C198.779 84.36 199.2 83.5234 199.62 82.4776Z" fill="white"/>
<path d="M212.307 78.0854C211.676 77.9459 211.185 77.5973 210.765 76.9698C210.344 76.3424 209.994 75.5057 209.783 74.3902C209.573 73.2747 209.433 71.8804 209.363 70.2768C209.363 69.0916 209.293 67.9064 209.293 66.8606C209.293 65.8148 209.293 64.769 209.293 63.7929C209.293 62.8169 209.293 61.9105 209.293 60.9345C209.293 59.9584 209.293 59.1218 209.293 58.2154C209.293 57.3091 209.293 56.4027 209.223 55.4267C209.223 54.5203 209.153 53.5442 209.082 52.5682C209.012 51.8013 209.153 51.1738 209.503 50.6858C209.853 50.1977 210.274 49.8491 210.905 49.7097C211.536 49.5005 212.026 49.5703 212.377 49.8491C212.797 50.128 213.008 50.616 213.008 51.383C213.078 52.4985 213.078 53.614 213.148 54.7295C213.148 55.845 213.218 56.8908 213.218 57.9365C213.218 58.9823 213.218 60.0281 213.288 61.0739C213.288 62.1197 213.288 63.2352 213.358 64.4901C213.358 65.6754 213.428 66.9303 213.428 68.3247C213.498 69.7191 213.638 70.8346 213.919 71.6712C214.199 72.5078 214.55 72.9959 215.11 73.2747C215.601 73.5536 216.232 73.4839 216.863 73.2747C217.493 73.0656 218.335 72.5775 219.176 71.8804C220.017 71.1832 220.718 70.486 221.348 69.7191C221.979 68.9522 222.4 68.1852 222.82 67.3486C223.171 66.512 223.451 65.6056 223.661 64.6993C223.802 63.7929 223.872 62.7472 223.872 61.7014C223.802 60.3767 223.802 59.1915 223.802 58.0063C223.802 56.821 223.802 55.7753 223.802 54.7295C223.802 53.6837 223.802 52.5682 223.802 51.4527C223.802 50.3372 223.732 49.0822 223.732 47.7576C223.732 47.0604 223.872 46.4329 224.152 45.8752C224.503 45.3174 224.923 44.9688 225.554 44.6899C226.185 44.4808 226.675 44.4808 227.026 44.7596C227.376 45.0385 227.587 45.5266 227.587 46.154C227.657 47.409 227.657 48.5942 227.657 49.64C227.657 50.6858 227.657 51.6618 227.657 52.6379C227.657 53.614 227.657 54.5203 227.657 55.5661C227.657 56.5422 227.657 57.6577 227.657 58.8429C227.657 59.8887 227.657 60.8647 227.517 61.7711C227.376 62.6774 227.236 63.5838 226.956 64.4901C226.675 65.3965 226.395 66.2331 225.974 67.1395C225.554 67.9761 225.063 68.8824 224.503 69.7191C223.942 70.5557 223.241 71.3923 222.47 72.229C221.699 73.0656 220.858 73.9022 219.877 74.7388C218.895 75.5755 217.984 76.2727 217.073 76.8304C216.162 77.3882 215.391 77.8065 214.62 78.0156C213.568 78.1551 212.867 78.2248 212.307 78.0854Z" fill="white"/>
<path d="M232.353 57.1697C232.143 57.1697 232.002 56.9605 232.002 56.6816C231.862 55.7056 231.792 54.7992 231.722 53.8929C231.652 52.9865 231.582 52.1499 231.582 51.3133C231.582 50.4766 231.442 49.5006 231.442 48.5245C231.372 47.5484 231.301 46.4329 231.161 45.1083C231.161 44.9688 231.161 44.8991 231.161 44.7597C231.161 44.0625 231.372 43.3653 231.792 42.7378C232.213 42.1104 232.773 41.6223 233.474 41.3434C234.175 41.0646 234.736 40.9948 235.156 41.2737C235.577 41.5526 235.787 42.0406 235.787 42.7378C235.787 42.8773 235.787 42.947 235.717 43.1561C235.577 44.5505 235.437 45.666 235.297 46.7118C235.156 47.7576 235.016 48.6639 234.876 49.5006C234.736 50.3372 234.596 51.2435 234.526 52.1499C234.385 53.0562 234.245 54.0323 234.175 55.0781C234.105 55.4267 234.035 55.7753 233.825 56.1239C233.614 56.4725 233.404 56.7513 233.124 56.9605C232.773 57.0999 232.493 57.1697 232.353 57.1697ZM232.143 62.7472C231.652 62.7472 231.372 62.538 231.301 62.05C231.231 61.562 231.372 60.9345 231.722 60.2373C232.072 59.5401 232.563 58.9126 233.124 58.4246C233.685 57.9366 234.175 57.6577 234.596 57.6577C235.016 57.6577 235.227 57.8669 235.297 58.3549C235.367 58.8429 235.227 59.4007 234.946 60.0979C234.666 60.7951 234.245 61.3528 233.685 61.9106C233.124 62.3986 232.563 62.6775 232.143 62.7472Z" fill="white"/>
</svg>
