<svg width="20" height="20" viewBox="0 0 20 20" fill="none" xmlns="http://www.w3.org/2000/svg">
<path fill-rule="evenodd" clip-rule="evenodd" d="M18 10C18 14.4183 14.4183 18 10 18C5.58172 18 2 14.4183 2 10C2 5.58172 5.58172 2 10 2C14.4183 2 18 5.58172 18 10ZM20 10C20 15.5228 15.5228 20 10 20C4.47715 20 0 15.5228 0 10C0 4.47715 4.47715 0 10 0C15.5228 0 20 4.47715 20 10ZM9.63052 11.8456C9.73319 11.9576 9.86386 12.0136 10.0225 12.0136C10.1719 12.0136 10.2932 11.9762 10.3865 11.9016C10.4892 11.8176 10.5545 11.7009 10.5825 11.5516C10.6292 11.2156 10.7459 10.9169 10.9325 10.6556C11.1285 10.3849 11.4179 10.0536 11.8005 9.66156C12.2485 9.21356 12.5892 8.81223 12.8225 8.45756C13.0559 8.09356 13.1725 7.6689 13.1725 7.18356C13.1725 6.73557 13.0465 6.3389 12.7945 5.99357C12.5519 5.64823 12.2065 5.37756 11.7585 5.18156C11.3199 4.98556 10.8159 4.88756 10.2465 4.88756C9.70519 4.88756 9.16852 4.98556 8.63652 5.18156C8.10452 5.36823 7.64252 5.62956 7.25052 5.96556C7.02652 6.13356 6.91452 6.3529 6.91452 6.62356C6.91452 6.81956 6.97052 6.99223 7.08252 7.14156C7.20386 7.28157 7.34385 7.35157 7.50252 7.35157C7.65185 7.35157 7.84319 7.28623 8.07652 7.15557C8.48719 6.8849 8.84652 6.67956 9.15452 6.53956C9.46252 6.39023 9.78452 6.31557 10.1205 6.31557C10.5125 6.31557 10.8205 6.4089 11.0445 6.59556C11.2779 6.7729 11.3945 7.01556 11.3945 7.32356C11.3945 7.60357 11.3292 7.85557 11.1985 8.07957C11.0679 8.30357 10.8625 8.58356 10.5825 8.91957C10.2279 9.33957 9.95719 9.7269 9.77052 10.0816C9.58385 10.4362 9.49052 10.8702 9.49052 11.3836C9.49052 11.5796 9.53719 11.7336 9.63052 11.8456ZM9.30852 14.6596C9.50452 14.8556 9.75185 14.9536 10.0505 14.9536C10.3399 14.9536 10.5825 14.8556 10.7785 14.6596C10.9839 14.4542 11.0865 14.2022 11.0865 13.9036C11.0865 13.6049 10.9885 13.3576 10.7925 13.1616C10.5965 12.9562 10.3492 12.8536 10.0505 12.8536C9.75185 12.8536 9.50452 12.9562 9.30852 13.1616C9.11252 13.3576 9.01452 13.6049 9.01452 13.9036C9.01452 14.2022 9.11252 14.4542 9.30852 14.6596Z" fill="#00754A"/>
</svg>
