<svg width="26" height="24" viewBox="0 0 26 24" fill="none" xmlns="http://www.w3.org/2000/svg">
<path d="M23.2857 5.78749C23.1428 5.94738 23 6.10728 23 6.42707C23 12.1833 21 16.8203 17 20.3379C15.1429 21.9369 13.1429 22.8963 10.8571 23.376C8.14285 23.8556 5.42857 23.6957 2.85714 22.5765C1.85714 22.2567 0.999996 21.6171 0.142853 21.1374C3 21.2973 5.57142 20.6577 7.85714 18.5791C6.71428 18.5791 5.71428 18.0994 4.85714 17.4598C3.85714 16.6604 3.14285 15.701 2.85714 14.4218C3.57142 14.5817 4.28571 14.5817 5.14285 14.2619C2.57142 13.4625 1.14285 11.5437 0.857138 8.5057C1.57142 8.98539 2.42857 9.14528 3.14285 9.30518C0.857139 7.06665 0.28571 4.50832 1.57142 1.47032C4.42857 5.3078 8.14285 7.38644 12.4286 7.70623C12.4286 7.38644 12.2857 7.06665 12.2857 6.74686C12.1429 3.70885 13.8571 1.31042 16.4286 0.67084C18.4286 -0.128636 20 0.35105 21.4286 1.79011C21.5714 1.95 21.7143 2.1099 22 1.95C23 1.63021 23.8571 1.31042 24.7143 0.67084C24.7143 0.67084 24.8571 0.67084 25 0.510945C24.5714 1.95 23.8571 2.90937 22.8571 3.70885C23.1429 3.70885 23.4286 3.54895 23.8571 3.54895C24.1429 3.38906 24.5714 3.38906 24.8571 3.22916C25.1429 3.06927 25.4286 2.90937 25.8571 2.90937C25 4.18853 24.2857 4.98801 23.2857 5.78749Z" fill="#3A9071"/>
</svg>
