<svg width="65" height="57" viewBox="0 0 65 57" fill="none" xmlns="http://www.w3.org/2000/svg">
<path d="M40.6499 26.9061L34.3407 39.5245C33.579 41.0606 31.3702 41.0098 30.672 39.4484L23.4488 23.4151L19.6404 32.5171H7.6948L30.8624 56.1925C31.7637 57.1192 33.2236 57.1192 34.1249 56.1925L57.3052 32.5044H43.4554L40.6499 26.9061ZM60.1361 5.32537L59.8314 5.00801C53.2937 -1.66934 42.5922 -1.66934 36.0418 5.00801L32.5 8.63865L28.9582 5.0207C22.4205 -1.66934 11.7063 -1.66934 5.16858 5.0207L4.86391 5.32537C-1.31835 11.6473 -1.58494 21.7268 3.9372 28.4549H16.9364L21.4938 17.5122C22.1793 15.8746 24.4897 15.8365 25.226 17.4614L32.6143 33.8755L38.8346 21.4475C39.5836 19.9495 41.7163 19.9495 42.4652 21.4475L45.9689 28.4549H61.0628C66.5849 21.7268 66.3183 11.66 60.1361 5.32537Z" fill="#8D48E6"/>
</svg>
