<svg width="41" height="60" viewBox="0 0 41 60" fill="none" xmlns="http://www.w3.org/2000/svg">
<path d="M40.0671 34.2456L38.9196 31.717C38.5475 30.8742 37.6792 30.281 36.8729 30.3747C36.8418 30.3435 36.8108 30.281 36.7798 30.1874L36.0666 26.1915C35.9115 25.255 35.0742 24.4434 34.1438 24.2873L32.9344 24.0687C32.7793 24.0375 32.5932 23.8502 32.5932 23.6941L31.973 6.58695C31.942 5.7753 31.4458 4.74512 30.7946 4.24564L27.6314 1.74824C27.2282 1.43607 26.67 1.24876 26.0808 1.24876C25.6776 1.24876 25.2745 1.34242 24.9644 1.52972L22.4834 2.87207C22.2353 2.99694 21.8012 3.12181 21.4601 3.12181C21.336 3.12181 21.274 3.12181 21.243 3.0906C21.0879 3.05938 20.7778 2.77842 20.7158 2.49746L20.4677 1.68581C20.1886 0.749285 19.2582 0.0625 18.2969 0.0625H17.9867C17.1184 0.0625 16.126 0.624415 15.6609 1.34242L10.0167 10.0833C9.61359 10.7077 9.33448 11.7691 9.36549 12.5183L9.48954 14.7035C9.52055 15.1718 9.42752 15.9834 9.30347 16.4517L8.09402 20.6973C7.96997 21.1343 7.59783 21.7899 7.28771 22.1333L0.899306 29.126C0.372107 29.7191 -0.0310449 30.7493 -3.32398e-05 31.5609L0.558177 54.1936C0.589189 54.9428 0.930317 55.973 1.39549 56.5661L1.45752 56.6598C1.73662 57.0344 1.98471 57.6588 2.01573 57.9397C2.10876 58.7514 2.82203 59.563 3.72137 59.844L4.00047 59.9376C4.18654 60.0001 4.37261 60.0313 4.5897 60.0313C5.396 60.0313 6.14028 59.5942 6.51242 58.9075L10.823 50.666C10.8851 50.5412 11.0711 50.4787 11.1952 50.51L11.8774 50.7597C12.1876 50.8846 12.5287 50.947 12.9318 50.947C13.49 50.947 14.0793 50.8221 14.4824 50.6036L18.9791 48.1374C19.6924 47.7316 20.3746 46.8575 20.5607 46.0459L21.336 42.5807C21.398 42.2998 21.7081 41.9876 21.9252 41.9251C21.9562 41.9251 21.9872 41.9251 22.0493 41.9251C22.2664 41.9251 22.5455 42.05 22.6695 42.1749L24.9644 44.7972C25.3365 45.2342 25.8947 45.4839 26.515 45.4839C26.9181 45.4839 27.3213 45.3591 27.6624 45.1405L39.4468 36.9303C40.1601 36.306 40.4702 35.151 40.0671 34.2456ZM27.8485 30.8117L19.5994 38.8346L11.3502 30.8117C8.62121 28.0646 8.24907 24.4121 10.8851 22.102C15.3818 18.1374 19.5994 23.382 19.5994 23.382C19.5994 23.382 23.8169 18.1062 28.3136 22.102C30.9496 24.4121 30.5775 28.0646 27.8485 30.8117Z" fill="#6CCA98"/>
</svg>
